<svg width="32" height="32" viewBox="0 0 32 32" fill="none" xmlns="http://www.w3.org/2000/svg">
<g clip-path="url(#clip0_127_2354)">
<path d="M28.551 2.00831H25.974V0.9375C25.974 0.41975 25.5543 0 25.0365 0C24.5188 0 24.099 0.41975 24.099 0.9375V2.00831H19.949V0.9375C19.949 0.41975 19.5293 0 19.0115 0C18.4938 0 18.074 0.41975 18.074 0.9375V2.00831H13.924V0.9375C13.924 0.41975 13.5043 0 12.9865 0C12.4688 0 12.049 0.41975 12.049 0.9375V2.00831H7.89902V0.9375C7.89902 0.41975 7.47927 0 6.96152 0C6.44377 0 6.02402 0.41975 6.02402 0.9375V2.00831H3.4469C1.54577 2.00831 -0.000976562 3.555 -0.000976562 5.45625V28.5521C-0.000976562 30.4533 1.54577 32 3.4469 32H28.551C30.4522 32 31.999 30.4533 31.999 28.5521V5.45625C31.999 3.555 30.4522 2.00831 28.551 2.00831ZM3.4469 3.88331H6.02402V4.95419C6.02402 5.47194 6.44377 5.89169 6.96152 5.89169C7.47927 5.89169 7.89902 5.47194 7.89902 4.95419V3.88331H12.0489V4.95419C12.0489 5.47194 12.4686 5.89169 12.9864 5.89169C13.5041 5.89169 13.9239 5.47194 13.9239 4.95419V3.88331H18.0739V4.95419C18.0739 5.47194 18.4936 5.89169 19.0114 5.89169C19.5291 5.89169 19.9489 5.47194 19.9489 4.95419V3.88331H24.0989V4.95419C24.0989 5.47194 24.5186 5.89169 25.0364 5.89169C25.5541 5.89169 25.9739 5.47194 25.9739 4.95419V3.88331H28.5509C29.4183 3.88331 30.124 4.58894 30.124 5.45625V8.03331H1.87402V5.45625C1.87402 4.58894 2.57965 3.88331 3.4469 3.88331ZM28.551 30.125H3.4469C2.57965 30.125 1.87402 29.4194 1.87402 28.5521V9.90831H30.124V28.5521C30.124 29.4194 29.4183 30.125 28.551 30.125Z" fill="black"/>
<path d="M9.47274 13.0547H5.45605C4.9383 13.0547 4.51855 13.4744 4.51855 13.9922V18.0088C4.51855 18.5266 4.9383 18.9463 5.45605 18.9463H9.4728C9.99055 18.9463 10.4103 18.5266 10.4103 18.0088V13.9922C10.4102 13.4744 9.99055 13.0547 9.47274 13.0547ZM8.53524 17.0713H6.39349V14.9297H8.53524V17.0713Z" fill="black"/>
<path d="M26.542 13.0547H22.5254C22.0076 13.0547 21.5879 13.4744 21.5879 13.9922V18.0088C21.5879 18.5266 22.0076 18.9463 22.5254 18.9463H26.542C27.0598 18.9463 27.4795 18.5266 27.4795 18.0088V13.9922C27.4795 13.4744 27.0598 13.0547 26.542 13.0547ZM25.6045 17.0713H23.4629V14.9297H25.6045V17.0713Z" fill="black"/>
<path d="M9.47274 21.0879H5.45605C4.9383 21.0879 4.51855 21.5076 4.51855 22.0254V26.042C4.51855 26.5598 4.9383 26.9795 5.45605 26.9795H9.4728C9.99055 26.9795 10.4103 26.5598 10.4103 26.042V22.0254C10.4102 21.5076 9.99055 21.0879 9.47274 21.0879ZM8.53524 25.1045H6.39349V22.9629H8.53524V25.1045Z" fill="black"/>
<path d="M26.542 21.0879H22.5254C22.0076 21.0879 21.5879 21.5076 21.5879 22.0254V26.042C21.5879 26.5598 22.0076 26.9795 22.5254 26.9795H26.542C27.0598 26.9795 27.4795 26.5598 27.4795 26.042V22.0254C27.4795 21.5076 27.0598 21.0879 26.542 21.0879ZM25.6045 25.1045H23.4629V22.9629H25.6045V25.1045Z" fill="black"/>
<path d="M18.008 21.0876H13.9912C13.4735 21.0876 13.0537 21.5074 13.0537 22.0251V26.0418C13.0537 26.5595 13.4735 26.9793 13.9912 26.9793H18.008C18.5257 26.9793 18.9455 26.5595 18.9455 26.0418V22.0251C18.9455 21.5074 18.5257 21.0876 18.008 21.0876ZM17.0705 25.1043H14.9287V22.9626H17.0705V25.1043Z" fill="black"/>
<path d="M17.4674 13.9172L15.2903 16.0944L14.533 15.3372C14.167 14.971 13.5733 14.971 13.2072 15.3372C12.8411 15.7033 12.8411 16.2969 13.2072 16.663L14.6274 18.0832C14.8032 18.259 15.0416 18.3578 15.2903 18.3578C15.539 18.3578 15.7774 18.259 15.9532 18.0832L18.7933 15.243C19.1593 14.8769 19.1593 14.2833 18.7933 13.9172C18.4271 13.551 17.8335 13.551 17.4674 13.9172Z" fill="black"/>
</g>
<defs>
<clipPath id="clip0_127_2354">
<rect width="32" height="32" fill="white"/>
</clipPath>
</defs>
</svg>
