<svg id="Layer_1" data-name="Layer 1" xmlns="http://www.w3.org/2000/svg" xmlns:xlink="http://www.w3.org/1999/xlink" viewBox="0 0 68.9 46.38"><defs><style>.cls-1{fill:#618816;}.cls-2{fill:#79a71e;}.cls-3{fill:url(#linear-gradient);}</style><linearGradient id="linear-gradient" x1="54.35" y1="33.65" x2="55.35" y2="33.65" gradientTransform="matrix(8.46, 0, 0, -36.75, -458.01, 1259.45)" gradientUnits="userSpaceOnUse"><stop offset="0" stop-color="#496413"/><stop offset="0.04" stop-color="#5e8315"/><stop offset="0.1" stop-color="#6d9817"/><stop offset="0.15" stop-color="#729d1c"/><stop offset="0.21" stop-color="#79a71e"/><stop offset="0.27" stop-color="#79a71e"/><stop offset="0.33" stop-color="#79a71e"/><stop offset="0.75" stop-color="#79a71e"/><stop offset="1" stop-color="#79a71e"/></linearGradient></defs><g id="Group_26" data-name="Group 26"><path id="Path_31" data-name="Path 31" class="cls-1" d="M5.42.7a3.75,3.75,0,0,0,0,7.49H7.27V.7Z"/><path id="Path_32" data-name="Path 32" class="cls-2" d="M47.31,8.19H5.42A3.75,3.75,0,0,1,1.68,4.45h0v20.2A20.42,20.42,0,0,0,22.1,45.07H67.73V28.61A20.42,20.42,0,0,0,47.31,8.19Z"/><path id="Path_33" data-name="Path 33" class="cls-3" d="M10.14,41.2v-33H5.42A3.74,3.74,0,0,1,1.68,4.45h0v20.2A20.38,20.38,0,0,0,10.14,41.2Z"/></g></svg>