<svg width="22" height="22" viewBox="0 0 22 22" fill="none" xmlns="http://www.w3.org/2000/svg">
<path d="M20.463 17.1079L17.0169 13.6618L14.3663 12.5667C15.2488 11.3116 15.7217 9.81431 15.72 8.27997C15.72 4.15548 12.3645 0.799988 8.23999 0.799988C4.1155 0.799988 0.76001 4.15548 0.76001 8.27997C0.76001 12.4045 4.1155 15.76 8.23999 15.76C9.78768 15.7617 11.2974 15.2807 12.5588 14.3839L13.651 17.0274L17.097 20.4737C17.318 20.6947 17.5803 20.87 17.8691 20.9896C18.1579 21.1092 18.4673 21.1708 18.7799 21.1708C19.0924 21.1708 19.4019 21.1093 19.6907 20.9897C19.9795 20.8701 20.2418 20.6948 20.4629 20.4738C20.6839 20.2528 20.8592 19.9904 20.9788 19.7016C21.0984 19.4129 21.16 19.1034 21.16 18.7908C21.16 18.4783 21.0985 18.1688 20.9789 17.88C20.8593 17.5913 20.684 17.3289 20.463 17.1079ZM2.12001 8.27997C2.12001 4.90548 4.8655 2.15998 8.23999 2.15998C11.6145 2.15998 14.36 4.90548 14.36 8.27997C14.36 11.6545 11.6145 14.4 8.23999 14.4C4.8655 14.4 2.12001 11.6545 2.12001 8.27997ZM19.5012 19.512C19.3098 19.703 19.0504 19.8103 18.78 19.8103C18.5095 19.8103 18.2501 19.703 18.0587 19.512L14.8044 16.2577L13.7889 13.7997L16.247 14.8152L19.5013 18.0695C19.6923 18.261 19.7995 18.5204 19.7995 18.7908C19.7995 19.0612 19.6922 19.3206 19.5012 19.512Z" fill="#CCCCCC"/>
</svg>
