<svg width="357" height="61" viewBox="0 0 357 61" fill="none" xmlns="http://www.w3.org/2000/svg">
<g clip-path="url(#clip0_125_87)">
<path d="M212.234 31.4478V49.2765H204.491V32.0638C204.491 30.4921 204.112 29.0125 203.435 27.7041C201.836 24.6001 198.584 22.4755 194.83 22.4755C189.494 22.4755 185.167 26.7694 185.167 32.0638C185.167 37.3582 189.494 41.6548 194.83 41.6548C198.584 41.6548 201.836 39.5302 203.435 36.4262V47.0914C201.329 48.284 198.95 49.0501 196.411 49.2765H193.255C184.374 48.4867 177.416 41.0835 177.416 32.0638C177.416 22.5176 185.212 14.7801 194.83 14.7801C197.96 14.7801 200.897 15.5988 203.435 17.0363C203.796 17.239 204.146 17.4549 204.491 17.6839C207.409 19.619 209.706 22.4044 211.019 25.6848C211.738 27.4776 212.162 29.418 212.234 31.4478Z" fill="#3B4A5D"/>
<path d="M53.4252 33.138C53.4252 39.7856 50.1334 45.6723 45.0802 49.2765C41.7964 51.6196 37.7698 52.9992 33.4143 52.9992C30.1994 52.9992 27.1622 52.2462 24.4699 50.9062C24.0508 50.7008 23.6396 50.477 23.2364 50.2427C22.7324 49.9452 22.2444 49.6293 21.7722 49.2923V49.2765H21.751C21.186 48.8737 20.6422 48.442 20.125 47.9839C16.0002 44.3481 13.4034 39.0432 13.4034 33.138V0H20.125V33.138C20.125 35.4469 20.7218 37.6162 21.7722 39.5013C23.0799 41.8575 25.0932 43.7715 27.5309 44.9668C27.958 45.1774 28.3983 45.3643 28.8492 45.5302C30.2737 46.0462 31.8095 46.3279 33.4143 46.3279C40.7539 46.3279 46.7036 40.4227 46.7036 33.138C46.7036 30.5527 45.9556 28.1437 44.6611 26.1086L49.0405 20.7326C51.7859 24.1315 53.4252 28.4439 53.4252 33.138Z" fill="#3B4A5D"/>
<path d="M48.1254 19.6769L43.8335 24.9476C41.3958 21.9016 37.6345 19.9481 33.4143 19.9481C28.401 19.9481 24.0348 22.7045 21.7722 26.7747V16.9837C25.0508 14.6484 29.0721 13.2768 33.4143 13.2768C39.234 13.2768 44.4702 15.741 48.1254 19.6769Z" fill="#3B4A5D"/>
<path d="M113.882 29.3285V49.2765H106.397V29.884C106.413 29.7023 106.421 29.5154 106.421 29.3285C106.421 29.1415 106.413 28.9572 106.397 28.7756C106.116 25.0477 102.975 22.1096 99.1474 22.1096C95.1314 22.1096 91.8767 25.3425 91.8767 29.3285V49.2765H84.415V29.3285C84.415 23.8761 87.4204 19.1241 91.8767 16.6098C94.0226 15.3961 96.5028 14.7064 99.1474 14.7064C101.792 14.7064 104.256 15.3935 106.397 16.5966C110.866 19.1056 113.882 23.8682 113.882 29.3285Z" fill="#3B4A5D"/>
<path d="M154.461 0V35.0046C153.626 39.7356 150.848 43.8031 146.976 46.3726C146.631 46.6017 146.281 46.8176 145.92 47.0203C143.381 48.4551 140.442 49.2765 137.312 49.2765C127.697 49.2765 119.898 41.5363 119.898 31.9927C119.898 22.4492 127.697 14.709 137.312 14.709C140.442 14.709 143.381 15.5304 145.92 16.9652V27.6303C144.32 24.5264 141.066 22.4018 137.312 22.4018C131.978 22.4018 127.652 26.6957 127.652 31.9927C127.652 37.2898 131.978 41.5811 137.312 41.5811C141.066 41.5811 144.32 39.4565 145.92 36.3525C146.596 35.0441 146.976 33.5618 146.976 31.9927V0H154.461Z" fill="#3B4A5D"/>
<path d="M169.729 14.7801H162.244V49.2765H169.729V14.7801Z" fill="#3B4A5D"/>
<path d="M254.343 31.9927C254.343 41.5363 246.547 49.2765 236.929 49.2765C233.799 49.2765 230.86 48.4551 228.322 47.0203C227.964 46.8176 227.611 46.6017 227.269 46.3726C222.653 43.3134 219.592 38.1217 219.518 32.2165V0H227.269V31.9927C227.269 33.5618 227.648 35.0441 228.322 36.3525C229.921 39.4565 233.176 41.5811 236.929 41.5811C242.264 41.5811 246.59 37.2871 246.59 31.9927C246.59 26.6984 242.264 22.4018 236.929 22.4018C233.176 22.4018 229.921 24.5264 228.322 27.6303V16.9652C230.86 15.5304 233.799 14.709 236.929 14.709C246.547 14.709 254.343 22.4465 254.343 31.9927Z" fill="#F07F6D"/>
<path d="M7.45635 13.2662H1.09021V52.9992H7.45635V13.2662Z" fill="#3B4A5D"/>
<path d="M75.8154 14.7064H68.3299V49.2765H75.8154V14.7064Z" fill="#3B4A5D"/>
<path d="M335.716 23.3706C335.628 24.0419 335.976 24.6422 336.517 24.9344C336.522 24.9344 336.525 24.9397 336.53 24.9423C336.644 25.0029 336.769 25.0476 336.899 25.0792L345.058 28.1148L349.639 29.8208L351.225 30.4131C354.573 31.9954 356.886 35.3863 356.886 39.3117C356.886 39.6908 356.865 40.062 356.822 40.4306C356.767 40.915 356.676 41.3863 356.552 41.847C355.427 46.062 351.557 49.1659 346.957 49.1659H328.22V41.847H347.35C348.655 41.847 349.793 40.865 349.865 39.5723C349.912 38.6904 349.483 37.9006 348.804 37.4451C348.544 37.2687 348.244 37.1397 347.923 37.0765C347.793 37.0502 347.666 37.0239 347.544 36.9765L338.785 33.7145L334.607 32.1586L333.586 31.7795C330.49 30.4105 328.31 27.3671 328.22 23.8076V23.3443C328.23 22.8994 328.275 22.4597 328.35 22.0332C328.358 21.9884 328.366 21.9463 328.374 21.9042C329.164 17.7471 332.84 14.6037 337.26 14.6037H357V22.0332H337.313C336.522 22.0332 335.817 22.594 335.716 23.3706Z" fill="#F07F6D"/>
<path d="M323.588 14.6037V34.5412C323.588 40.0041 320.572 44.7667 316.103 47.2757C315.09 47.847 314.005 48.2998 312.861 48.6183V61H305.379V48.7552C304.031 48.4314 302.755 47.9259 301.583 47.2625C297.126 44.7483 294.121 39.9936 294.121 34.5412V14.6037H301.583V34.5412C301.583 37.2766 303.119 39.6592 305.379 40.8834C306.413 41.4416 307.596 41.7601 308.856 41.7601C310.336 41.7601 311.713 41.3205 312.861 40.5649C314.684 39.3696 315.93 37.3819 316.103 35.0967C316.119 34.9151 316.127 34.7281 316.127 34.5412C316.127 34.3543 316.119 34.17 316.103 33.9883V14.6037H323.588Z" fill="#F07F6D"/>
<path d="M328.22 23.3443V23.8076C328.217 23.7313 328.217 23.6523 328.217 23.5759C328.217 23.4996 328.217 23.4206 328.22 23.3443Z" fill="#F07F6D"/>
<path d="M334.607 32.1586C334.257 32.0533 333.915 31.9269 333.586 31.7795L334.607 32.1586Z" fill="#F07F6D"/>
<path d="M336.899 25.0793C336.769 25.0477 336.644 25.0029 336.53 24.9424L336.899 25.0793Z" fill="#F07F6D"/>
<path d="M336.899 25.0793C336.769 25.0477 336.644 25.0029 336.53 24.9424L336.899 25.0793Z" fill="#F07F6D"/>
<path d="M288.543 14.6037V34.5412C288.543 40.0015 285.527 44.7641 281.06 47.2757C278.919 48.4788 276.447 49.1659 273.81 49.1659C271.174 49.1659 268.686 48.4735 266.54 47.2625C262.083 44.7509 259.078 39.9936 259.078 34.5412V14.6037H266.54V34.5412C266.54 38.5271 269.794 41.7601 273.81 41.7601C277.826 41.7601 280.795 38.8036 281.06 35.0599C281.076 34.8887 281.081 34.715 281.081 34.5412C281.081 34.3675 281.076 34.1937 281.06 34.0226V14.6037H288.543Z" fill="#F07F6D"/>
<path d="M8.58633 4.43876C8.58633 5.54976 8.15927 6.56336 7.45634 7.32158C6.67384 8.16931 5.5465 8.70112 4.29449 8.70112C3.04249 8.70112 1.87536 8.15088 1.0902 7.27682C0.411147 6.52387 0 5.5287 0 4.43876C0 3.34881 0.411147 2.35365 1.0902 1.60069C1.87536 0.726629 3.02127 0.176392 4.29449 0.176392C5.56772 0.176392 6.67384 0.7082 7.45634 1.55593C8.15927 2.31416 8.58633 3.32775 8.58633 4.43876Z" fill="#F07F6D"/>
<path d="M76.285 7.7981C76.285 8.50103 76.1152 9.16448 75.8155 9.74894C75.0966 11.1548 73.6271 12.1158 71.9321 12.1158C70.4334 12.1158 69.1124 11.3654 68.3299 10.2202C67.8551 9.53043 67.5793 8.69585 67.5793 7.7981C67.5793 6.90034 67.8551 6.06577 68.3299 5.376C69.1124 4.23077 70.4334 3.47781 71.9321 3.47781C73.6271 3.47781 75.0966 4.44139 75.8155 5.84726C76.1152 6.43172 76.285 7.09516 76.285 7.7981Z" fill="#3B4A5D"/>
<path d="M170.186 7.7981C170.186 8.4905 170.021 9.14342 169.729 9.72261C169.016 11.1416 167.538 12.1158 165.833 12.1158C164.342 12.1158 163.026 11.3733 162.244 10.2386C161.761 9.54622 161.48 8.70375 161.48 7.7981C161.48 6.89244 161.761 6.04998 162.244 5.35757C163.026 4.22287 164.342 3.47781 165.833 3.47781C167.538 3.47781 169.016 4.45192 169.729 5.87358C170.021 6.45278 170.186 7.10569 170.186 7.7981Z" fill="#3B4A5D"/>
<path d="M20.5388 58.7754C22.3978 58.7754 23.9049 57.2796 23.9049 55.4344C23.9049 53.5893 22.3978 52.0935 20.5388 52.0935C18.6797 52.0935 17.1727 53.5893 17.1727 55.4344C17.1727 57.2796 18.6797 58.7754 20.5388 58.7754Z" fill="#3B4A5D"/>
<path d="M46.5047 58.7754C48.3637 58.7754 49.8708 57.2796 49.8708 55.4344C49.8708 53.5893 48.3637 52.0935 46.5047 52.0935C44.6456 52.0935 43.1386 53.5893 43.1386 55.4344C43.1386 57.2796 44.6456 58.7754 46.5047 58.7754Z" fill="#3B4A5D"/>
<path d="M23.9049 34.8887C24.9728 34.8887 25.8386 34.0295 25.8386 32.9695C25.8386 31.9095 24.9728 31.0502 23.9049 31.0502C22.8369 31.0502 21.9712 31.9095 21.9712 32.9695C21.9712 34.0295 22.8369 34.8887 23.9049 34.8887Z" fill="#F07F6D"/>
<path d="M28.645 34.8887C29.713 34.8887 30.5787 34.0295 30.5787 32.9695C30.5787 31.9095 29.713 31.0502 28.645 31.0502C27.577 31.0502 26.7113 31.9095 26.7113 32.9695C26.7113 34.0295 27.577 34.8887 28.645 34.8887Z" fill="#F07F6D"/>
<path d="M33.4143 34.8887C34.4823 34.8887 35.348 34.0295 35.348 32.9695C35.348 31.9095 34.4823 31.0502 33.4143 31.0502C32.3463 31.0502 31.4806 31.9095 31.4806 32.9695C31.4806 34.0295 32.3463 34.8887 33.4143 34.8887Z" fill="#F07F6D"/>
<path d="M38.1279 34.8887C39.1959 34.8887 40.0616 34.0295 40.0616 32.9695C40.0616 31.9095 39.1959 31.0502 38.1279 31.0502C37.0599 31.0502 36.1942 31.9095 36.1942 32.9695C36.1942 34.0295 37.0599 34.8887 38.1279 34.8887Z" fill="#F07F6D"/>
<path d="M42.868 34.8887C43.936 34.8887 44.8017 34.0295 44.8017 32.9695C44.8017 31.9095 43.936 31.0502 42.868 31.0502C41.8 31.0502 40.9343 31.9095 40.9343 32.9695C40.9343 34.0295 41.8 34.8887 42.868 34.8887Z" fill="#F07F6D"/>
<path d="M42.868 39.596C43.936 39.596 44.8017 38.7368 44.8017 37.6768C44.8017 36.6168 43.936 35.7575 42.868 35.7575C41.8 35.7575 40.9343 36.6168 40.9343 37.6768C40.9343 38.7368 41.8 39.596 42.868 39.596Z" fill="#F07F6D"/>
<path d="M38.1279 39.596C39.1959 39.596 40.0616 38.7368 40.0616 37.6768C40.0616 36.6168 39.1959 35.7575 38.1279 35.7575C37.0599 35.7575 36.1942 36.6168 36.1942 37.6768C36.1942 38.7368 37.0599 39.596 38.1279 39.596Z" fill="#F07F6D"/>
<path d="M33.3878 39.596C34.4557 39.596 35.3215 38.7368 35.3215 37.6768C35.3215 36.6168 34.4557 35.7575 33.3878 35.7575C32.3198 35.7575 31.454 36.6168 31.454 37.6768C31.454 38.7368 32.3198 39.596 33.3878 39.596Z" fill="#F07F6D"/>
<path d="M28.645 39.596C29.713 39.596 30.5787 38.7368 30.5787 37.6768C30.5787 36.6168 29.713 35.7575 28.645 35.7575C27.577 35.7575 26.7113 36.6168 26.7113 37.6768C26.7113 38.7368 27.577 39.596 28.645 39.596Z" fill="#F07F6D"/>
<path d="M28.645 44.3007C29.713 44.3007 30.5787 43.4414 30.5787 42.3814C30.5787 41.3215 29.713 40.4622 28.645 40.4622C27.577 40.4622 26.7113 41.3215 26.7113 42.3814C26.7113 43.4414 27.577 44.3007 28.645 44.3007Z" fill="#F07F6D"/>
<path d="M33.3878 44.3007C34.4557 44.3007 35.3215 43.4414 35.3215 42.3814C35.3215 41.3215 34.4557 40.4622 33.3878 40.4622C32.3198 40.4622 31.454 41.3215 31.454 42.3814C31.454 43.4414 32.3198 44.3007 33.3878 44.3007Z" fill="#F07F6D"/>
<path d="M38.1279 44.3007C39.1959 44.3007 40.0616 43.4414 40.0616 42.3814C40.0616 41.3215 39.1959 40.4622 38.1279 40.4622C37.0599 40.4622 36.1942 41.3215 36.1942 42.3814C36.1942 43.4414 37.0599 44.3007 38.1279 44.3007Z" fill="#F07F6D"/>
<path d="M23.9049 39.596C24.9728 39.596 25.8386 38.7368 25.8386 37.6768C25.8386 36.6168 24.9728 35.7575 23.9049 35.7575C22.8369 35.7575 21.9712 36.6168 21.9712 37.6768C21.9712 38.7368 22.8369 39.596 23.9049 39.596Z" fill="#F07F6D"/>
</g>
<defs>
<clipPath id="clip0_125_87">
<rect width="357" height="61" fill="white"/>
</clipPath>
</defs>
</svg>
