<?xml version="1.0" encoding="UTF-8"?>
<svg id="Layer_1" data-name="Layer 1" xmlns="http://www.w3.org/2000/svg" viewBox="0 0 1432.26 500">
  <defs>
    <style>
      .cls-1 {
        fill: #f17f6d;
      }

      .cls-2 {
        fill: #253b53;
      }
    </style>
  </defs>
  <g>
    <path class="cls-2" d="m80.28,148.87c0-4.53,1.77-8.47,5.32-11.83,3.55-3.35,7.59-5.03,12.12-5.03s8.47,1.68,11.83,5.03c3.35,3.35,5.03,7.29,5.03,11.83s-1.68,8.57-5.03,12.12c-3.35,3.55-7.29,5.32-11.83,5.32s-8.58-1.78-12.12-5.32c-3.55-3.55-5.32-7.59-5.32-12.12Zm2.07,29.27h32.52v152.57h-32.52v-152.57Z"/>
    <path class="cls-2" d="m171.93,330.71h-32.52v-79.24c0-10.45,1.97-20.3,5.91-29.57,3.94-9.26,9.36-17.34,16.26-24.24,6.9-6.9,14.98-12.37,24.25-16.41,9.26-4.04,19.12-6.06,29.57-6.06s20.3,2.02,29.57,6.06c9.26,4.04,17.34,9.51,24.24,16.41,6.9,6.9,12.37,14.98,16.41,24.24,4.04,9.27,6.06,19.12,6.06,29.57v79.24h-32.52v-79.05c0-5.9-1.14-11.5-3.4-16.81-2.27-5.31-5.42-9.98-9.46-14.01-4.04-4.03-8.72-7.18-14.04-9.44-5.32-2.26-10.94-3.39-16.85-3.39s-11.53,1.13-16.85,3.39c-5.32,2.26-9.96,5.41-13.9,9.44-3.95,4.03-7.05,8.7-9.31,14.01-2.27,5.31-3.4,10.92-3.4,16.81v79.05Z"/>
    <path class="cls-2" d="m339.57,261.32c-4.54-1.18-8.63-3.05-12.27-5.6-3.65-2.56-6.8-5.6-9.46-9.14-2.66-3.54-4.73-7.52-6.21-11.95-1.48-4.43-2.22-8.99-2.22-13.72,0-5.9,1.13-11.45,3.4-16.66,2.26-5.21,5.37-9.74,9.31-13.57,3.94-3.84,8.47-6.88,13.6-9.14,5.12-2.26,10.64-3.39,16.56-3.39h83.67v32.82h-84.56c-2.76.4-5.03,1.57-6.8,3.54-1.77,1.97-2.66,4.23-2.66,6.78,0,2.17.64,4.13,1.92,5.9,1.28,1.77,2.91,2.85,4.88,3.24l62.39,15.93c4.92.98,9.56,2.7,13.9,5.16,4.33,2.46,8.08,5.56,11.24,9.29,3.15,3.74,5.66,7.97,7.54,12.69,1.87,4.72,2.81,9.73,2.81,15.04,0,5.9-1.14,11.41-3.4,16.52-2.27,5.12-5.32,9.59-9.17,13.42s-8.33,6.83-13.45,8.99c-5.13,2.16-10.55,3.24-16.26,3.24h-85.15v-32.82h86.34c2.37-.39,4.38-1.47,6.06-3.24,1.67-1.77,2.51-3.93,2.51-6.49s-.79-4.77-2.37-6.63c-1.58-1.87-3.45-3-5.62-3.39l-66.53-16.81Z"/>
    <path class="cls-2" d="m464.34,123.74h32.52v54.4h47.01v32.82h-47.01v43.47c0,6.47,1.23,12.54,3.7,18.21,2.46,5.68,5.86,10.62,10.2,14.83,4.33,4.21,9.31,7.54,14.93,9.99,5.62,2.45,11.68,3.67,18.18,3.67v32.82c-11.04,0-21.34-2.07-30.9-6.21-9.56-4.14-17.99-9.8-25.28-17-7.29-7.19-13.01-15.62-17.15-25.28-4.14-9.65-6.21-20-6.21-31.04V123.74Z"/>
    <path class="cls-2" d="m671.31,322.33c-12.82,7.95-26.81,11.93-41.99,11.93-11.04,0-21.34-2.07-30.9-6.21-9.56-4.14-17.99-9.8-25.28-17-7.29-7.19-13.01-15.62-17.15-25.28-4.14-9.66-6.21-20-6.21-31.04s2.07-21.09,6.21-30.75c4.14-9.65,9.85-18.13,17.15-25.43,7.29-7.29,15.72-13.01,25.28-17.15,9.56-4.14,19.86-6.21,30.9-6.21s21.09,2.07,30.75,6.21c9.65,4.14,18.13,9.86,25.43,17.15,7.29,7.29,13.01,15.77,17.15,25.43,4.14,9.66,6.21,19.91,6.21,30.75v75.99h-32.52v-75.8c0-6.49-1.23-12.53-3.7-18.14-2.47-5.6-5.87-10.57-10.2-14.89-4.34-4.32-9.31-7.72-14.93-10.18-5.62-2.46-11.68-3.69-18.18-3.69s-12.57,1.22-18.18,3.67c-5.62,2.45-10.6,5.83-14.93,10.14-4.34,4.31-7.74,9.26-10.2,14.84-2.47,5.58-3.7,11.6-3.7,18.07s1.23,12.54,3.7,18.21c2.46,5.68,5.86,10.63,10.2,14.84,4.33,4.21,9.31,7.54,14.93,9.99,5.62,2.45,11.68,3.67,18.18,3.67,4.33,0,8.47-.54,12.42-1.63,3.94-1.08,7.69-2.61,11.23-4.58l18.33,27.1Z"/>
    <path class="cls-1" d="m1030.55,320.55v-.61c-6.31,4.38-13.11,7.76-20.4,10.15-7.3,2.38-14.98,3.58-23.06,3.58-10.45,0-20.3-2.02-29.57-6.06-9.27-4.04-17.35-9.51-24.24-16.41-6.9-6.9-12.37-14.98-16.41-24.24-4.04-9.26-6.06-19.12-6.06-29.57v-79.24h32.52v79.05c0,5.9,1.13,11.5,3.4,16.81,2.26,5.31,5.42,9.98,9.46,14.01,4.04,4.03,8.72,7.18,14.04,9.44,5.32,2.26,10.94,3.39,16.85,3.39s11.48-1.08,16.71-3.24c5.22-2.16,9.8-5.16,13.75-9,3.94-3.83,7.1-8.26,9.46-13.27,2.37-5.01,3.55-10.47,3.55-16.37v-80.82h32.52v81.59c0,17.96-9.15,46.97-32.52,60.81h0Z"/>
    <path class="cls-1" d="m1125.46,156.56c-.99,0-1.77.35-2.37,1.05-.59.7-.89,1.55-.89,2.55v17.99h24.84v32.52h-24.84v120.04h-32.52v-173.85c0-4.53.89-8.82,2.66-12.86,1.77-4.04,4.14-7.54,7.1-10.5s6.45-5.32,10.5-7.1c4.04-1.77,8.33-2.66,12.86-2.66h24.24v32.82h-21.59Z"/>
    <path class="cls-1" d="m1161.82,123.74h32.52v54.4h47.01v32.82h-47.01v43.47c0,6.47,1.23,12.54,3.7,18.21,2.46,5.68,5.86,10.62,10.2,14.83,4.33,4.21,9.31,7.54,14.93,9.99,5.62,2.45,11.68,3.67,18.18,3.67v32.82c-11.04,0-21.34-2.07-30.9-6.21-9.56-4.14-17.99-9.8-25.28-17-7.3-7.19-13.01-15.62-17.15-25.28-4.14-9.65-6.21-20-6.21-31.04V123.74Z"/>
    <path class="cls-1" d="m1280.38,261.32c-4.54-1.18-8.62-3.05-12.27-5.6-3.65-2.56-6.8-5.6-9.46-9.14s-4.73-7.52-6.21-11.95c-1.48-4.43-2.22-8.99-2.22-13.72,0-5.9,1.13-11.45,3.4-16.66,2.26-5.21,5.37-9.74,9.31-13.57,3.94-3.84,8.47-6.88,13.6-9.14,5.12-2.26,10.64-3.39,16.56-3.39h83.67v32.82h-84.56c-2.76.4-5.03,1.57-6.8,3.54-1.77,1.97-2.66,4.23-2.66,6.78,0,2.17.64,4.13,1.92,5.9,1.28,1.77,2.91,2.85,4.88,3.24l62.38,15.93c4.93.98,9.56,2.7,13.9,5.16,4.33,2.46,8.08,5.56,11.23,9.29,3.15,3.74,5.66,7.97,7.54,12.69,1.87,4.72,2.81,9.73,2.81,15.04,0,5.9-1.14,11.41-3.4,16.52-2.27,5.12-5.32,9.59-9.17,13.42-3.85,3.84-8.33,6.83-13.46,8.99-5.13,2.16-10.55,3.24-16.26,3.24h-85.15v-32.82h86.34c2.37-.39,4.38-1.47,6.06-3.24,1.67-1.77,2.51-3.93,2.51-6.49s-.79-4.77-2.37-6.63c-1.58-1.87-3.45-3-5.62-3.39l-66.53-16.81Z"/>
  </g>
  <rect class="cls-1" x="971.53" y="328.83" width="33.9" height="82.92"/>
  <path class="cls-1" d="m811,344.96c-23.42,0-43.42-8.29-60.01-24.88-16.59-16.59-24.88-36.59-24.88-60.01s8.29-43.42,24.88-60.01c16.59-16.59,36.59-24.88,60.01-24.88s43.41,8.3,60.01,24.88c16.59,16.59,24.88,36.59,24.88,60.01v67.06c0,23.42-8.25,43.38-24.75,59.88-16.5,16.5-36.46,24.75-59.87,24.75-18.09,0-34.37-5.1-48.83-15.3-14.46-10.2-24.71-23.55-30.74-40.05h42.84c9.22,11.88,21.38,17.83,36.46,17.83,10.82,0,20.44-3.33,28.87-9.98,8.42-6.65,13.97-15.04,16.63-25.15,1.06-3.37,1.6-6.65,1.6-9.85v-69.19c0-12.95-4.57-24.04-13.7-33.26-9.14-9.22-20.27-13.84-33.4-13.84s-24.26,4.62-33.4,13.84c-9.14,9.23-13.7,20.32-13.7,33.26s4.56,24.04,13.7,33.26c9.14,9.23,20.27,13.84,33.4,13.84s24.48-4.79,34.06-14.37v44.97c-11.35,4.79-22.71,7.18-34.06,7.18Z"/>
</svg>