<svg width="47" height="45" viewBox="0 0 47 45" fill="none" xmlns="http://www.w3.org/2000/svg">
<path d="M40.5756 33.8183C40.3393 33.9408 40.1129 34.0617 39.8939 34.1811C38.8784 33.3619 37.0489 32.5782 35.0089 33.6358C32.33 35.0253 30.7969 36.2136 30.0063 36.932L28.1201 36.7565L24.6565 33.9856C25.6225 34.2503 26.6118 34.5063 27.4743 34.698C27.8769 34.7898 28.2883 34.8373 28.7012 34.8395C29.5565 34.85 30.3944 34.5973 31.1013 34.1157C32.9783 32.8362 33.3934 30.3138 33.4101 30.207C33.4447 29.9863 33.3971 29.7605 33.2764 29.5724C33.1556 29.3844 32.97 29.2472 32.7548 29.1869L20.709 25.8104C20.6288 25.7879 20.546 25.7766 20.4627 25.7766H1.48135C1.23932 25.7766 1.00721 25.8727 0.836071 26.0438C0.664932 26.215 0.568787 26.4471 0.568787 26.6891C0.568787 26.9311 0.664932 27.1633 0.836071 27.3344C1.00721 27.5055 1.23932 27.6017 1.48135 27.6017H20.3372L31.3942 30.701C31.1795 31.3106 30.7757 32.1324 30.0666 32.6121C29.4734 33.0136 28.755 33.1129 27.8699 32.9163C25.0914 32.2989 20.7803 30.9428 20.7371 30.9292C19.7789 30.6355 19.1157 31.8802 19.8926 32.5121L27.1931 38.3525C27.3324 38.4639 27.5012 38.532 27.6787 38.5485L30.2438 38.7872L35.5268 39.2786C35.6766 39.2936 35.8278 39.2708 35.9665 39.2122C36.1052 39.1537 36.227 39.0612 36.3207 38.9434C36.333 38.9283 37.5977 37.4179 41.415 35.4386C41.8024 35.2243 42.2404 35.118 42.6829 35.131C43.1255 35.144 43.5565 35.2758 43.9307 35.5125L37.5807 41.8625L27.1883 42.5553L13.5163 36.7988C13.4042 36.7516 13.2838 36.7274 13.1622 36.7273H1.48135C1.23932 36.7273 1.00721 36.8235 0.836071 36.9946C0.664932 37.1657 0.568787 37.3979 0.568787 37.6399C0.568787 37.8819 0.664932 38.114 0.836071 38.2852C1.00721 38.4563 1.23932 38.5525 1.48135 38.5525H12.9778L26.6791 44.3214C26.7912 44.3686 26.9116 44.3928 27.0332 44.3929C27.0534 44.3929 27.0736 44.3921 27.0938 44.3909L38.0446 43.6608C38.2652 43.6461 38.4729 43.5518 38.6292 43.3955L45.9297 36.095C46.0931 35.9316 46.1884 35.7124 46.1965 35.4815C46.2045 35.2506 46.1247 35.0252 45.9731 34.8509C45.1789 33.9376 43.0285 32.5464 40.5756 33.8183ZM35.2517 37.42L32.6379 37.1769C33.664 36.4656 34.7366 35.8239 35.8485 35.2561C36.7755 34.7753 37.5744 34.9325 38.1413 35.2091C36.5942 36.1899 35.6965 36.9795 35.2517 37.42Z" fill="#3B4A5D"/>
<path d="M30.6834 21.0312C32.5966 21.0312 34.4668 20.4639 36.0576 19.401C37.6483 18.3381 38.8882 16.8273 39.6203 15.0598C40.3524 13.2923 40.544 11.3473 40.1708 9.47089C39.7975 7.59447 38.8762 5.87088 37.5234 4.51806C36.1706 3.16524 34.447 2.24396 32.5706 1.87072C30.6942 1.49747 28.7492 1.68904 26.9817 2.42118C25.2141 3.15332 23.7034 4.39315 22.6405 5.9839C21.5776 7.57465 21.0103 9.44486 21.0103 11.358C21.0132 13.9226 22.0332 16.3814 23.8467 18.1948C25.6601 20.0083 28.1188 21.0283 30.6834 21.0312ZM30.6834 3.50998C32.2356 3.50998 33.753 3.97026 35.0436 4.83261C36.3342 5.69497 37.3401 6.92067 37.9341 8.35471C38.5281 9.78876 38.6835 11.3667 38.3807 12.8891C38.0779 14.4115 37.3304 15.8099 36.2329 16.9074C35.1353 18.005 33.7369 18.7525 32.2145 19.0553C30.6921 19.3581 29.1142 19.2027 27.6801 18.6087C26.2461 18.0147 25.0204 17.0088 24.158 15.7182C23.2957 14.4276 22.8354 12.9102 22.8354 11.358C22.8378 9.27734 23.6654 7.28256 25.1367 5.81129C26.608 4.34002 28.6027 3.51239 30.6834 3.50998Z" fill="#3B4A5D"/>
<path d="M34.1345 8.90525L33.7474 10.3336H26.5131L26.9056 8.90525H34.1345ZM30.4982 17.3445L26.6821 12.7541L26.6766 11.5439H28.5629C29.0136 11.5439 29.3897 11.4694 29.6914 11.3204C29.9967 11.1677 30.2275 10.9551 30.3838 10.6825C30.5437 10.4063 30.6236 10.0828 30.6236 9.7121C30.6236 9.15603 30.4601 8.70899 30.133 8.37099C29.8059 8.03299 29.2825 7.86398 28.5629 7.86398H26.5131L26.9383 6.17941H28.5629C29.4788 6.17941 30.2366 6.32116 30.8362 6.60464C31.4396 6.8845 31.8902 7.28065 32.1883 7.79311C32.4899 8.30557 32.6408 8.90526 32.6408 9.59217C32.6408 10.1991 32.5299 10.7407 32.3082 11.2168C32.0865 11.6929 31.7376 12.0836 31.2615 12.3889C30.7854 12.6942 30.1621 12.8977 29.3916 12.9995L29.3261 13.0213L32.7716 17.2463V17.3445H30.4982ZM34.1454 6.17941L33.7474 7.62956L27.8814 7.60775L28.2794 6.17941H34.1454Z" fill="#3B4A5D"/>
<path d="M40.0893 25.3138C39.9179 25.1439 39.6862 25.0488 39.4449 25.0493C39.2035 25.0499 38.9722 25.146 38.8016 25.3166C38.6309 25.4873 38.5348 25.7186 38.5343 25.9599C38.5338 26.2012 38.6289 26.4329 38.7988 26.6043L41.719 29.5245C41.8901 29.6957 42.1222 29.7918 42.3642 29.7918C42.6063 29.7918 42.8384 29.6957 43.0095 29.5245L45.9297 26.6043C46.0996 26.4329 46.1947 26.2012 46.1942 25.9599C46.1937 25.7186 46.0976 25.4873 45.9269 25.3166C45.7563 25.146 45.525 25.0499 45.2836 25.0493C45.0423 25.0488 44.8106 25.1439 44.6392 25.3138L43.2768 26.6761V21.5787C43.2768 21.3367 43.1807 21.1046 43.0095 20.9335C42.8384 20.7623 42.6063 20.6662 42.3642 20.6662C42.1222 20.6662 41.8901 20.7623 41.719 20.9335C41.5478 21.1046 41.4517 21.3367 41.4517 21.5787V26.6761L40.0893 25.3138Z" fill="#3B4A5D"/>
<path d="M42.3643 18.8411C42.6063 18.8411 42.8384 18.7449 43.0095 18.5738C43.1807 18.4026 43.2768 18.1705 43.2768 17.9285V17.1984C43.2768 16.9564 43.1807 16.7243 43.0095 16.5532C42.8384 16.382 42.6063 16.2859 42.3643 16.2859C42.1222 16.2859 41.8901 16.382 41.719 16.5532C41.5478 16.7243 41.4517 16.9564 41.4517 17.1984V17.9285C41.4517 18.1705 41.5478 18.4026 41.719 18.5738C41.8901 18.7449 42.1222 18.8411 42.3643 18.8411Z" fill="#3B4A5D"/>
<path d="M13.977 13.4634C14.1481 13.6345 14.3802 13.7307 14.6223 13.7307C14.8643 13.7307 15.0964 13.6345 15.2675 13.4634L18.1878 10.5432C18.3577 10.3718 18.4527 10.1401 18.4522 9.89876C18.4517 9.65742 18.3556 9.42613 18.1849 9.25548C18.0143 9.08483 17.783 8.98872 17.5417 8.98819C17.3003 8.98767 17.0686 9.08276 16.8972 9.25266L15.5348 10.6149V5.51762C15.5348 5.27559 15.4387 5.04348 15.2676 4.87234C15.0964 4.7012 14.8643 4.60506 14.6223 4.60506C14.3802 4.60506 14.1481 4.7012 13.977 4.87234C13.8059 5.04348 13.7097 5.27559 13.7097 5.51762V10.6149L12.3473 9.25266C12.1759 9.08276 11.9442 8.98767 11.7029 8.98819C11.4616 8.98872 11.2303 9.08483 11.0596 9.25548C10.889 9.42613 10.7929 9.65742 10.7923 9.89876C10.7918 10.1401 10.8869 10.3718 11.0568 10.5432L13.977 13.4634Z" fill="#3B4A5D"/>
<path d="M14.6223 2.77993C14.8643 2.77993 15.0964 2.68378 15.2676 2.51264C15.4387 2.3415 15.5348 2.10939 15.5348 1.86736V1.13731C15.5348 0.895284 15.4387 0.66317 15.2676 0.492031C15.0964 0.320892 14.8643 0.224747 14.6223 0.224747C14.3803 0.224747 14.1481 0.320892 13.977 0.492031C13.8059 0.66317 13.7097 0.895284 13.7097 1.13731V1.86736C13.7097 2.10939 13.8059 2.3415 13.977 2.51264C14.1481 2.68378 14.3803 2.77993 14.6223 2.77993Z" fill="#3B4A5D"/>
<path d="M5.21641 22.224C5.38755 22.3952 5.61966 22.4913 5.86168 22.4913C6.10371 22.4913 6.33582 22.3952 6.50696 22.224L9.42716 19.3038C9.59706 19.1324 9.69215 18.9007 9.69163 18.6594C9.6911 18.418 9.59499 18.1867 9.42434 18.0161C9.2537 17.8454 9.0224 17.7493 8.78106 17.7488C8.53973 17.7483 8.30801 17.8434 8.13662 18.0133L6.77425 19.3755V14.2782C6.77425 14.0362 6.6781 13.8041 6.50696 13.6329C6.33582 13.4618 6.10371 13.3657 5.86168 13.3657C5.61966 13.3657 5.38754 13.4618 5.2164 13.6329C5.04526 13.8041 4.94912 14.0362 4.94912 14.2782V19.3755L3.58675 18.0133C3.41536 17.8434 3.18364 17.7483 2.9423 17.7488C2.70097 17.7493 2.46967 17.8454 2.29902 18.0161C2.12837 18.1867 2.03227 18.418 2.03174 18.6594C2.03121 18.9007 2.1263 19.1324 2.2962 19.3038L5.21641 22.224Z" fill="#3B4A5D"/>
<path d="M5.86166 11.5405C6.10369 11.5405 6.3358 11.4444 6.50694 11.2732C6.67808 11.1021 6.77423 10.87 6.77423 10.628V9.89792C6.77423 9.65589 6.67808 9.42377 6.50694 9.25264C6.3358 9.0815 6.10369 8.98535 5.86166 8.98535C5.61963 8.98535 5.38752 9.0815 5.21638 9.25264C5.04524 9.42377 4.9491 9.65589 4.9491 9.89792V10.628C4.9491 10.87 5.04524 11.1021 5.21638 11.2732C5.38752 11.4444 5.61963 11.5405 5.86166 11.5405Z" fill="#3B4A5D"/>
</svg>
