<svg width="523" height="324" viewBox="0 0 523 324" fill="none" xmlns="http://www.w3.org/2000/svg">
<g clip-path="url(#clip0_156_12)">
<path d="M23.3769 302.629C8.47221 273.497 -12.9206 238.301 10.1787 209.791C19.0408 198.853 39.9813 180.008 42.5621 166.15C49.1679 130.674 24.0578 95.5827 60.1417 69.5838C94.3712 44.9229 120.283 75.1551 156.367 43.5849C190.847 13.4185 245.143 -9.13672 299.782 3.65773C327.538 10.157 352.734 51.9419 376.576 51.9419C474.653 51.9419 455.02 127.465 494.082 151.294C541.269 180.079 520.914 257.146 501.549 301.964C501.547 301.969 23.3752 302.629 23.3752 302.629H23.3769Z" fill="#E3EAFF" fill-opacity="0.6"/>
<path d="M147.302 173.699C147.273 173.699 147.246 173.696 147.217 173.691C146.994 173.644 146.851 173.424 146.898 173.2C148.813 163.969 145.622 156.898 142.537 150.061C140.965 146.578 139.341 142.978 138.475 139.205C137.501 134.963 137.602 130.912 138.782 126.821C138.934 126.299 139.09 125.759 139.251 125.206C141.276 118.261 144.05 108.75 142.475 102.541C140.743 95.7213 140.062 90.4351 142.362 86.794C142.485 86.6 142.738 86.5426 142.932 86.6658C143.125 86.789 143.182 87.0437 143.06 87.2378C140.918 90.6275 141.597 95.7247 143.275 102.337C144.907 108.767 142.096 118.403 140.045 125.439C139.884 125.992 139.727 126.531 139.576 127.052C137.036 135.861 140.074 142.593 143.29 149.72C146.429 156.678 149.677 163.873 147.707 173.369C147.666 173.564 147.495 173.698 147.303 173.698L147.302 173.699Z" fill="#CFDAFF"/>
<path d="M142.308 84.0202L140.781 87.5449C140.669 87.8064 140.83 88.1152 141.082 88.1152H143.527C143.778 88.1152 143.941 87.8064 143.828 87.5465L142.308 84.0219V84.0202Z" fill="#CFDAFF"/>
<path d="M142.631 85.4898C150.217 85.4898 156.367 77.3057 156.367 67.2101C156.367 57.1145 150.217 48.9304 142.631 48.9304C135.045 48.9304 128.895 57.1145 128.895 67.2101C128.895 77.3057 135.045 85.4898 142.631 85.4898Z" fill="#CFDAFF"/>
<path d="M300.276 147.701C300.247 147.701 300.22 147.697 300.192 147.692C299.968 147.645 299.825 147.425 299.872 147.203C301.787 137.97 298.596 130.902 295.511 124.064C293.939 120.581 292.315 116.981 291.449 113.208C290.475 108.966 290.576 104.915 291.757 100.824C291.906 100.302 292.064 99.7623 292.226 99.2088C294.25 92.2641 297.024 82.7531 295.449 76.544C293.717 69.7258 293.036 64.4379 295.336 60.7968C295.459 60.6028 295.713 60.5454 295.906 60.6686C296.098 60.7918 296.155 61.0465 296.034 61.2406C293.892 64.6303 294.571 69.7275 296.249 76.3381C297.882 82.7682 295.07 92.4041 293.019 99.44C292.858 99.9934 292.701 100.532 292.55 101.053C290.01 109.862 293.048 116.594 296.264 123.721C299.403 130.68 302.651 137.874 300.681 147.37C300.641 147.566 300.469 147.701 300.277 147.701H300.276Z" fill="#CFDAFF"/>
<path d="M295.282 58.0213L293.756 61.546C293.643 61.8075 293.804 62.1163 294.057 62.1163H296.501C296.752 62.1163 296.915 61.8075 296.802 61.5476L295.282 58.023V58.0213Z" fill="#CFDAFF"/>
<path d="M309.341 41.2112C309.341 51.306 303.191 59.4909 295.605 59.4909C288.019 59.4909 281.869 51.3077 281.869 41.2112C281.869 31.1146 288.019 22.9332 295.605 22.9332C303.191 22.9332 309.341 31.1163 309.341 41.2112Z" fill="#CFDAFF"/>
<path d="M279.303 191.65C279.275 191.65 279.248 191.647 279.219 191.642C278.996 191.594 278.853 191.375 278.9 191.151C280.815 181.918 277.624 174.848 274.538 168.012C272.966 164.529 271.342 160.929 270.476 157.156C269.503 152.914 269.604 148.863 270.784 144.771C270.934 144.25 271.092 143.71 271.253 143.157C273.277 136.212 276.052 126.701 274.476 120.492C272.744 113.672 272.064 108.386 274.364 104.745C274.486 104.551 274.74 104.493 274.934 104.616C275.127 104.74 275.184 104.994 275.061 105.188C272.919 108.578 273.599 113.675 275.277 120.286C276.909 126.716 274.098 136.352 272.047 143.388C271.885 143.941 271.729 144.48 271.578 145.001C269.037 153.81 272.074 160.542 275.292 167.669C278.431 174.627 281.679 181.822 279.708 191.318C279.668 191.513 279.497 191.648 279.305 191.648L279.303 191.65Z" fill="#CFDAFF"/>
<path d="M274.31 101.971L272.783 105.496C272.671 105.757 272.834 106.066 273.084 106.066H275.53C275.781 106.066 275.944 105.757 275.831 105.496L274.311 101.971H274.31Z" fill="#CFDAFF"/>
<path d="M274.633 103.44C282.219 103.44 288.369 95.2564 288.369 85.1608C288.369 75.0652 282.219 66.8811 274.633 66.8811C267.046 66.8811 260.896 75.0652 260.896 85.1608C260.896 95.2564 267.046 103.44 274.633 103.44Z" fill="#CFDAFF"/>
<path d="M486.558 308.644C486.529 308.644 486.503 308.641 486.474 308.636C486.25 308.589 486.107 308.369 486.155 308.145C488.069 298.912 484.878 291.844 481.793 285.008C480.221 281.525 478.597 277.924 477.731 274.152C476.758 269.91 476.859 265.859 478.039 261.767C478.19 261.246 478.347 260.706 478.508 260.153C480.532 253.208 483.306 243.697 481.729 237.488C479.999 230.67 479.317 225.382 481.617 221.741C481.739 221.547 481.993 221.491 482.187 221.612C482.38 221.735 482.437 221.99 482.314 222.184C480.172 225.574 480.852 230.671 482.53 237.282C484.162 243.712 481.351 253.348 479.3 260.384C479.138 260.937 478.982 261.475 478.831 261.997C476.29 270.806 479.328 277.538 482.545 284.665C485.684 291.623 488.932 298.818 486.962 308.314C486.921 308.509 486.75 308.644 486.558 308.644Z" fill="#CFDAFF"/>
<path d="M481.566 218.967L480.04 222.491C479.927 222.753 480.088 223.062 480.341 223.062H482.787C483.037 223.062 483.2 222.753 483.088 222.493L481.568 218.968L481.566 218.967Z" fill="#CFDAFF"/>
<path d="M495.625 202.157C495.625 212.251 489.475 220.436 481.889 220.436C474.303 220.436 468.153 212.253 468.153 202.157C468.153 192.06 474.303 183.877 481.889 183.877C489.475 183.877 495.625 192.06 495.625 202.157Z" fill="#CFDAFF"/>
<path d="M68.9633 313.596C68.9348 313.596 68.9079 313.593 68.8793 313.588C68.6557 313.541 68.5128 313.321 68.5598 313.097C70.4748 303.866 67.2837 296.795 64.1986 289.96C62.6265 286.477 61.0024 282.877 60.1365 279.104C59.1631 274.862 59.264 270.811 60.4442 266.719C60.5955 266.198 60.7519 265.658 60.9133 265.105C62.9376 258.16 65.7117 248.649 64.1347 242.44C62.4029 235.62 61.722 230.334 64.022 226.693C64.1448 226.499 64.3986 226.441 64.592 226.564C64.7853 226.688 64.8425 226.942 64.7198 227.136C62.5778 230.526 63.257 235.623 64.935 242.234C66.5675 248.664 63.7564 258.3 61.7052 265.336C61.5438 265.889 61.3874 266.427 61.2361 266.949C58.6957 275.758 61.7338 282.49 64.9501 289.617C68.0891 296.575 71.3373 303.77 69.3669 313.266C69.3265 313.461 69.155 313.596 68.9633 313.596Z" fill="#CFDAFF"/>
<path d="M63.9699 223.919L62.4433 227.443C62.3306 227.705 62.492 228.014 62.7442 228.014H65.1888C65.4394 228.014 65.6024 227.705 65.4898 227.443L63.9699 223.919Z" fill="#CFDAFF"/>
<path d="M64.2944 225.388C71.8807 225.388 78.0306 217.204 78.0306 207.109C78.0306 197.013 71.8807 188.829 64.2944 188.829C56.7081 188.829 50.5582 197.013 50.5582 207.109C50.5582 217.204 56.7081 225.388 64.2944 225.388Z" fill="#CFDAFF"/>
<path d="M259.995 324C397.455 324 508.887 314.646 508.887 303.108C508.887 291.57 397.455 282.217 259.995 282.217C122.536 282.217 11.1033 291.57 11.1033 303.108C11.1033 314.646 122.536 324 259.995 324Z" fill="#B1C1F2"/>
<path d="M267.918 55.9696C265.769 53.1637 264.562 55.1074 263.445 55.6861C260.333 57.2991 262.492 49.9377 259.067 50.95C259.98 56.1552 257.889 56.0303 259.466 61.0516L259.096 63.1387L264.106 66.8355L264.666 64.5324C267.896 63.0763 271.388 60.3649 267.919 55.9713L267.918 55.9696Z" fill="#DE623C"/>
<path d="M268.693 57.1119C268.007 55.4179 266.806 54.6113 266.246 54.3397C265.577 54.0343 263.543 54.7683 263.207 55.5495C262.869 56.3307 263.111 57.1726 263.729 57.4864C263.898 57.5624 264.056 57.5877 264.257 57.5556C263.978 58.379 264.219 59.2209 264.78 59.4926C264.89 59.5263 264.997 59.5601 265.106 59.5938C265.054 60.2248 265.305 60.8053 265.749 60.9925C265.917 61.0685 266.125 61.0853 266.277 61.0617C266.157 61.6 266.329 62.3947 266.773 62.5819C267.203 63.1792 268.04 62.8907 268.523 62.3896C269.51 61.3671 269.856 59.9819 268.693 57.1119Z" fill="#F37A50"/>
<path d="M221.684 255.405C226.494 261.843 238.308 257.893 237.916 266.603C219.952 266.492 212.485 266.603 212.485 266.603C212.509 264.602 212.864 259.854 213.279 257.996L221.684 255.406V255.405Z" fill="black"/>
<path d="M194.805 255.573C199.615 262.012 211.429 258.062 211.038 266.772C193.073 266.66 185.606 266.772 185.606 266.772C185.63 264.771 185.985 260.023 186.4 258.165L194.805 255.575V255.573Z" fill="black"/>
<path d="M229.999 157.095C229.999 157.095 232.916 198.367 231.731 207.542C230.546 216.718 226.351 228.481 226.825 258.832C220.969 260.254 212.484 258.832 212.484 258.832C212.484 258.832 211.226 224.514 217.416 209.186C214.9 194.296 206.821 160.195 206.821 160.195L229.998 157.095H229.999Z" fill="#201D40"/>
<path d="M218.915 158.224C218.915 158.224 213.025 204.559 210.142 213.347C207.258 222.135 203.785 228.56 198.564 258.459C192.545 258.751 184.334 259.464 184.334 259.464C184.334 259.464 185.605 221.54 194.978 212.915C195.296 197.815 193.463 158.521 193.463 158.521L218.915 158.224Z" fill="#2C2858"/>
<path d="M225.773 95.9912C225.773 95.9912 226.67 95.5981 249.364 90.0909C249.371 90.0909 249.378 90.0909 249.383 90.0943C249.383 90.0943 257.981 96.5194 257.973 96.5295C252.366 103.653 227.625 111.278 227.625 111.278L225.773 95.9929V95.9896V95.9912Z" fill="#201D40"/>
<path d="M215.355 95.7145L207.201 94.9502L199.311 97.1571L208.2 106.337L215.355 95.7145Z" fill="#95A6DB"/>
<path d="M212.527 99.9276C209.205 102.666 205.468 103.171 201.466 100.898L200.407 90.0049L211.898 89.0954L212.527 99.9259V99.9276Z" fill="#F37A50"/>
<path d="M197.217 101.542L199.633 100.582L199.311 97.1571L206.014 102.56L207.907 102.862L209.716 102.226L215.354 95.7129L215.643 99.1414L217.775 99.5699L225.463 100.82L226.378 143.651L229.411 158.222C219.207 161.627 207.798 162.477 196.58 160.927L196.957 146.298L188.989 104.439L197.214 101.541L197.217 101.542Z" fill="#95A6DB"/>
<path d="M209.382 107.19L214.199 139.89L211.53 143.609L208.053 140.928L206.87 107.461L209.382 107.19Z" fill="#2C2858"/>
<path d="M209.667 103.327L207.907 102.863L206.113 103.648L206.873 107.525L209.397 107.298L209.667 103.327Z" fill="#2C2858"/>
<path d="M215.355 95.7145L216.675 135.492L221.885 160.929C221.885 160.929 231.887 161.506 236.95 156.672L230.63 136.052L225.774 95.9963L215.355 95.7162V95.7145Z" fill="#2C2858"/>
<path d="M215.355 95.7145L216.668 134.96L222.665 105.094L215.355 95.7145Z" fill="#494C7F"/>
<path d="M198.695 98.5154L209.281 162.557C209.281 162.557 192.629 164.153 186.733 161.141L190.548 141.819L188.54 103.662L198.695 98.5154Z" fill="#2C2858"/>
<path d="M198.695 98.5154L204.948 136.05L193.751 107.731L198.695 98.5154Z" fill="#494C7F"/>
<path d="M266.194 64.9238C262.632 63.7326 260.757 63.1961 257.988 63.1961C251.439 82.78 246.772 90.1584 248.719 95.7803C250.341 100.468 255.478 100.093 257.988 96.5801C261.3 91.9469 264.232 74.3455 266.194 64.9238Z" fill="#201D40"/>
<path d="M188.653 103.66C183.226 104.227 167.61 136.05 167.61 136.05L170.714 171.73L179.505 170.306L182.109 140.148L190.718 123.077L188.651 103.66H188.653Z" fill="#201D40"/>
<path d="M194.928 82.419C198.12 90.425 205.787 94.8743 212.053 92.3586C218.319 89.8429 220.809 81.3121 217.617 73.3078C214.424 65.3018 206.757 60.8525 200.491 63.3682C194.225 65.8839 191.735 74.4146 194.928 82.419Z" fill="#F37A50"/>
<path d="M213.856 76.8443C214.225 77.3791 214.957 77.5108 215.49 77.1379C216.021 76.7667 216.154 76.0327 215.782 75.4979C215.412 74.9647 214.681 74.8314 214.148 75.2026C213.615 75.5738 213.484 76.3077 213.856 76.8426V76.8443Z" fill="black"/>
<path d="M204.612 79.6637C205.012 80.2424 205.804 80.3842 206.38 79.9826C206.957 79.581 207.098 78.7863 206.698 78.2076C206.298 77.6305 205.506 77.4871 204.93 77.8887C204.353 78.2903 204.212 79.085 204.612 79.6637Z" fill="black"/>
<path d="M210.564 77.5647C211.978 79.0141 213.751 80.7705 213.751 80.7705C213.751 80.7705 213.526 82.6771 211.202 83.2154C212.099 82.5894 212.927 81.7086 212.238 80.4786C211.549 79.2486 210.564 77.5647 210.564 77.5647Z" fill="#DE623C"/>
<path d="M203.141 78.3763C203.406 78.3763 203.645 78.1941 203.711 77.9241C203.726 77.8617 204.119 76.3297 205.427 76.3246C205.75 76.3246 206.012 76.058 206.011 75.7341C206.011 75.4101 205.743 75.1469 205.422 75.1486C203.637 75.157 202.777 76.7903 202.572 77.6508C202.497 77.9663 202.692 78.2835 203.006 78.3594C203.052 78.3696 203.097 78.3763 203.142 78.3763H203.141Z" fill="#2C2858"/>
<path d="M213.21 74.5479C213.376 74.5479 213.539 74.4619 213.63 74.3084C213.639 74.2932 213.955 73.787 214.478 73.6942C214.846 73.6284 215.264 73.7802 215.717 74.143C215.927 74.3117 216.235 74.278 216.403 74.0671C216.571 73.8562 216.537 73.5474 216.327 73.3787C215.639 72.8269 214.955 72.6093 214.293 72.7325C213.324 72.913 212.81 73.7735 212.79 73.8106C212.653 74.0435 212.731 74.3438 212.964 74.4805C213.042 74.526 213.128 74.5479 213.21 74.5479Z" fill="#2C2858"/>
<path d="M196.806 81.8571C196.804 78.7273 199.521 79.3904 199.808 75.2616C200.096 71.1329 200.486 68.0014 204.39 68.6797C208.294 69.3579 209.185 68.3574 210.802 67.5053C213.827 65.9126 217.617 73.3061 217.617 73.3061C217.617 73.3061 221.184 65.7675 217.03 62.4486C212.423 58.7687 211.527 61.7586 207.334 59.1804C203.141 56.6023 197.113 58.3486 195.889 60.9166C194.6 63.6247 194.371 65.5616 190.719 67.4632C187.067 69.363 185.245 72.5232 188.653 76.441C192.063 80.3588 186.45 83.2052 192.174 86.816C194.393 88.2164 197.51 88.5673 198.12 87.7659C198.937 86.6928 196.806 83.8785 196.806 81.8605V81.8571Z" fill="#2C2858"/>
<path d="M218.683 77.0619C218.683 77.0619 219.051 81.7019 218.383 83.1361C217.689 81.275 214.316 83.4718 212.917 83.6574C209.536 84.1062 205.321 82.7514 204.716 87.8384C200.585 89.1511 196.715 80.2762 196.715 80.2762C196.199 90.6376 203.707 95.8208 214.111 94.1707C220.966 93.0841 221.601 83.5056 218.681 77.0603L218.683 77.0619Z" fill="#2C2858"/>
<path d="M216.314 85.9015C216.497 85.5995 216.236 85.2249 215.892 85.2974C215.016 85.483 213.565 85.7581 212.166 85.8846C210.769 86.0095 209.291 85.996 208.396 85.969C208.045 85.9588 207.853 86.3739 208.087 86.6388C208.807 87.4504 210.253 88.6517 212.394 88.4594C214.536 88.267 215.747 86.8278 216.312 85.9015H216.314Z" fill="white"/>
<path d="M197.75 79.4798C199.329 80.8532 199.701 83.018 198.581 84.3138C197.461 85.6096 195.272 85.5472 193.695 84.1737C192.116 82.8003 191.745 80.6356 192.865 79.3397C193.984 78.0439 196.173 78.1064 197.75 79.4798Z" fill="#F37A50"/>
<path d="M196.582 83.8143C196.646 83.7873 196.703 83.7452 196.75 83.6878C197.428 82.8779 197.537 81.9314 197.044 81.1586C196.54 80.3673 195.545 79.964 194.68 80.2002C194.437 80.2677 194.294 80.5191 194.359 80.7638C194.425 81.0084 194.677 81.1519 194.921 81.0861C195.395 80.9561 195.99 81.2059 196.276 81.6547C196.55 82.0849 196.471 82.5978 196.052 83.1006C195.891 83.2947 195.916 83.5832 196.109 83.7469C196.247 83.8616 196.431 83.8835 196.585 83.816L196.582 83.8143Z" fill="#DE623C"/>
<path d="M207.907 102.863C207.907 102.863 206.177 105.846 202.86 107.704L198.12 99.7589L199.311 97.1588L207.907 102.863Z" fill="white"/>
<path d="M207.907 102.863C207.907 102.863 210.942 105.938 213.733 106.726L217.062 97.9063L215.354 95.7162L207.907 102.865V102.863Z" fill="white"/>
<path d="M130.457 138.643C136.215 136.63 148.452 130.43 142.654 122.069C136.857 113.709 134.394 117.212 136.624 107.159C138.853 97.1065 131.8 89.1005 124.972 91.0324C118.145 92.9626 116.346 98.4715 108.018 96.98C99.6906 95.4885 92.6695 103.243 95.7362 110.068C98.8029 116.893 100.108 120.178 97.13 123.903C94.1524 127.631 80.877 131.533 86.2958 140.599C91.7163 149.664 94.2516 149.14 92.2845 153.734C90.3174 158.329 94.6804 163.633 102.361 163.001C110.039 162.368 117.015 159.533 119.922 150.969C122.829 142.404 130.457 138.643 130.457 138.643Z" fill="#2C2858"/>
<path d="M117.479 285.178L117.003 290.09L121.097 291.336L124.385 287.813L124.925 285.785L117.479 285.178Z" fill="#F37A50"/>
<path d="M130.394 186.118C130.394 186.118 136.54 226.043 134.882 243.154C133.224 260.264 124.89 285.863 124.89 285.863H117.411C117.411 285.863 117.538 282.767 117.83 272.566C118.203 259.555 117.83 248.873 123.493 242.163C120.561 229.47 113.059 186.118 113.059 186.118H130.394Z" fill="#F37A50"/>
<path d="M122.803 192.944C122.803 192.944 120.816 229.694 114.779 245.782C99.314 256.361 85.2534 261.489 75.8953 265.184C75.4548 265.358 73.5969 258.371 73.5969 258.371C83.989 251.549 93.11 239.253 103.714 240.834C101.902 229.065 100.145 198.818 100.145 198.818L122.803 192.943V192.944Z" fill="#F37A50"/>
<path d="M114.508 127.619V142.716C114.508 142.716 119.523 145.401 123.869 142.716C123.2 139.362 122.803 128.673 122.803 128.673L114.508 127.619Z" fill="#F37A50"/>
<path d="M105.536 135.765H130.495C130.495 135.765 134.978 145.863 134.369 154.509C133.76 163.154 132.666 186.679 132.666 186.679C132.666 186.679 117.356 183.194 107.583 180.167C106.804 162.425 101.557 154.338 101.918 148.575C102.28 142.811 105.536 135.767 105.536 135.767V135.765Z" fill="#F595AD"/>
<path d="M130.294 114.404C130.294 122.862 125.211 129.719 118.94 129.719C112.669 129.719 107.586 122.862 107.586 114.404C107.586 105.946 112.669 99.0891 118.94 99.0891C125.211 99.0891 130.294 105.946 130.294 114.404Z" fill="#F37A50"/>
<path d="M106.831 114.404C113.099 113.599 118.926 110.095 122.217 105.566C124.343 110.859 130.292 114.404 130.292 114.404C130.292 114.404 134.751 104.279 126.642 98.8157C118.906 93.6055 100.449 97.1656 106.831 114.404Z" fill="#2C2858"/>
<path d="M114.163 117.672C113.497 117.672 112.956 117.131 112.956 116.461C112.956 115.791 113.496 115.25 114.163 115.25C114.831 115.25 115.37 115.791 115.37 116.461C115.37 117.131 114.831 117.672 114.163 117.672Z" fill="black"/>
<path d="M123.78 117.672C123.114 117.672 122.573 117.131 122.573 116.461C122.573 115.791 123.113 115.25 123.78 115.25C124.448 115.25 124.987 115.791 124.987 116.461C124.987 117.131 124.448 117.672 123.78 117.672Z" fill="black"/>
<path d="M125.905 115.369C125.707 115.369 125.515 115.268 125.406 115.084C125.108 114.58 124.747 114.278 124.333 114.187C123.619 114.028 122.909 114.507 122.903 114.512C122.64 114.693 122.279 114.627 122.097 114.364C121.916 114.101 121.98 113.741 122.24 113.557C122.286 113.525 123.357 112.786 124.57 113.048C125.315 113.21 125.932 113.694 126.403 114.492C126.566 114.769 126.475 115.125 126.2 115.288C126.107 115.344 126.005 115.369 125.904 115.369H125.905Z" fill="#2C2858"/>
<path d="M111.875 115.428C111.747 115.428 111.619 115.386 111.513 115.3C111.263 115.099 111.223 114.733 111.424 114.484C112.186 113.529 113.028 113.011 113.93 112.94C115.091 112.849 115.892 113.569 115.925 113.599C116.161 113.815 116.177 114.183 115.962 114.421C115.747 114.657 115.384 114.674 115.147 114.462C115.13 114.446 114.654 114.043 114.005 114.101C113.442 114.149 112.877 114.524 112.329 115.211C112.215 115.354 112.046 115.428 111.877 115.428H111.875Z" fill="#2C2858"/>
<path d="M120.137 118.05C121.697 119.179 122.185 119.643 122.787 120.019C122.371 121.418 120.186 122.112 119.564 121.951C121.085 121.199 121.3 120.178 121.3 120.178L120.137 118.05Z" fill="#DE623C"/>
<path d="M109.282 115.585C110.584 117.239 110.648 119.363 109.427 120.332C108.206 121.3 106.162 120.743 104.861 119.09C103.559 117.436 103.495 115.312 104.716 114.344C105.937 113.375 107.981 113.932 109.282 115.585Z" fill="#F37A50"/>
<path d="M108.141 119.157C108.09 119.157 108.04 119.147 107.991 119.127C107.794 119.044 107.702 118.816 107.786 118.619C108.062 117.964 108.069 117.436 107.805 117.052C107.398 116.458 106.438 116.274 105.74 116.297C105.526 116.306 105.348 116.137 105.341 115.923C105.335 115.708 105.501 115.53 105.715 115.523C106.651 115.491 107.858 115.761 108.442 116.613C108.733 117.036 108.978 117.782 108.499 118.921C108.437 119.07 108.294 119.157 108.142 119.157H108.141Z" fill="#DE623C"/>
<path d="M115.929 124.018C115.767 123.753 115.996 123.423 116.3 123.487C117.07 123.65 118.348 123.892 119.577 124.003C120.806 124.114 122.106 124.101 122.892 124.077C123.202 124.069 123.37 124.433 123.163 124.666C122.529 125.382 121.258 126.438 119.375 126.269C117.49 126.1 116.426 124.835 115.929 124.018Z" fill="white"/>
<path d="M121.194 290.791C122.212 288.112 124.385 287.813 124.385 287.813C128.611 293.469 138.988 289.998 138.643 297.648C122.864 297.551 116.305 297.648 116.305 297.648C116.325 295.892 116.638 291.721 117.001 290.088L117.823 290.235L121.193 290.79L121.194 290.791Z" fill="#2C2858"/>
<path d="M116.307 297.438H138.653V298.765C138.653 299.275 138.239 299.69 137.732 299.69H117.23C116.722 299.69 116.309 299.275 116.309 298.765V297.438H116.307Z" fill="#201D40"/>
<path d="M74.3249 257.887L68.7481 260.736L69.5366 264.83L74.0391 266.068L76.1559 265.079L74.3249 257.887Z" fill="#F37A50"/>
<path d="M70.0461 264.668C72.7983 264.33 74.0391 266.068 74.0391 266.068C71.1137 272.271 78.7821 279.639 72.0821 282.807C65.019 269.168 61.9658 263.561 61.9658 263.561C63.4789 262.783 67.1879 261.163 68.7498 260.736L68.9969 261.511L70.0477 264.666L70.0461 264.668Z" fill="#2C2858"/>
<path d="M69.9216 282.946L60.6359 265.28C60.4055 264.842 60.572 264.298 61.0091 264.067L62.1457 263.466L72.2654 282.72L71.1288 283.322C70.6917 283.553 70.1503 283.384 69.92 282.947L69.9216 282.946Z" fill="#201D40"/>
<path d="M106.167 230.106C101.565 229.271 97.1519 229.276 94.5627 229.333C96.2003 223.833 95.7278 189.882 106.11 178.206H132.242C141.493 194.135 138.002 217.738 143.719 227.406C141.486 228.49 135.225 231.203 127.028 232.033C117.965 232.951 113.941 231.517 106.165 230.106H106.167Z" fill="#070635"/>
<path d="M114.304 135.635L103.253 134.658C103.253 134.658 101.918 148.573 96.6492 182.962C104.091 184.815 109.281 184.926 109.281 184.926L114.304 135.637V135.635Z" fill="#E62552"/>
<path d="M123.15 135.648L128.039 184.925C128.039 184.925 130.265 185.681 138.623 183.187C134.574 162.656 135.674 135.215 131.866 135.075C128.133 135.357 123.15 135.648 123.15 135.648Z" fill="#E62552"/>
<path d="M133.769 148.409C140.827 147.756 154.879 140.393 160.589 134.798L153.776 128.383C153.776 128.383 135.509 133.349 131.045 135.735C127.635 138.525 127.114 147.066 133.769 148.409Z" fill="#E62552"/>
<path d="M169.812 93.4553C167.664 90.6494 166.456 92.5931 165.34 93.1719C162.228 94.7849 164.387 87.4234 160.962 88.4357C161.875 93.6409 159.783 93.5161 161.36 98.5373L160.991 100.624L166.001 104.321L166.561 102.018C169.79 100.562 173.283 97.8506 169.814 93.457L169.812 93.4553Z" fill="#DE623C"/>
<path d="M170.587 94.5959C169.901 92.9019 168.703 92.0954 168.141 91.8254C167.472 91.52 165.438 92.254 165.101 93.0352C164.763 93.8164 165.006 94.6583 165.624 94.9722C165.792 95.0481 165.95 95.0734 166.152 95.0413C165.873 95.8647 166.113 96.7067 166.675 96.9783C166.784 97.012 166.894 97.0458 167.001 97.0795C166.949 97.7106 167.2 98.291 167.643 98.4783C167.812 98.5542 168.02 98.5728 168.171 98.5474C168.052 99.0857 168.224 99.8804 168.667 100.068C169.098 100.665 169.935 100.376 170.418 99.8753C171.405 98.8528 171.751 97.4676 170.587 94.5993V94.5959Z" fill="#F37A50"/>
<path d="M160.777 100.046C160.777 100.046 154.697 120.406 152.92 128.145C152.214 131.218 158.169 134.321 160.589 134.8C163.203 132.222 168.297 124.047 166.818 103.103C164.984 100.994 160.775 100.047 160.775 100.047L160.777 100.046Z" fill="#E62552"/>
<path d="M102.065 147.945C95.0065 147.292 80.9543 139.929 75.2446 134.334L82.0572 127.919C82.0572 127.919 100.324 132.885 104.788 135.271C108.198 138.061 108.719 146.602 102.065 147.945Z" fill="#E62552"/>
<path d="M66.021 92.9913C68.1697 90.1854 69.3769 92.1291 70.4933 92.7079C73.6054 94.3209 71.4466 86.9594 74.8714 87.9717C73.9584 93.1769 76.05 93.0521 74.4729 98.0733L74.8411 100.16L69.8309 103.857L69.271 101.554C66.0412 100.098 62.5492 97.3866 66.0177 92.993L66.021 92.9913Z" fill="#DE623C"/>
<path d="M65.2476 94.1319C65.9353 92.4379 67.1341 91.6314 67.6939 91.3614C68.3631 91.056 70.3974 91.79 70.7337 92.5712C71.0716 93.3524 70.8295 94.1943 70.2108 94.5082C70.0427 94.5841 69.8847 94.6094 69.6829 94.5773C69.962 95.4007 69.7216 96.2427 69.16 96.5143C69.0507 96.548 68.9431 96.5818 68.8338 96.6155C68.886 97.2466 68.6355 97.827 68.1916 98.0143C68.0235 98.0902 67.815 98.1088 67.6637 98.0834C67.783 98.6217 67.6115 99.4164 67.1677 99.6037C66.7373 100.201 65.9 99.9124 65.4175 99.4113C64.4305 98.3888 64.0842 97.0036 65.2476 94.1336V94.1319Z" fill="#F37A50"/>
<path d="M75.058 99.5817C75.058 99.5817 81.1376 119.942 82.9147 127.681C83.6208 130.755 77.6657 133.857 75.2463 134.336C72.6319 131.758 67.5376 123.583 69.0171 102.639C70.8514 100.53 75.0597 99.5834 75.0597 99.5834L75.058 99.5817Z" fill="#E62552"/>
<path d="M412.411 144.539C408.499 139.435 408.891 129.228 411.824 125.5C414.758 121.771 414.9 118.96 413.193 115.293C409.086 106.461 424.928 99.1987 431.968 99.9833C439.009 100.768 452.7 103.91 453.09 114.311C453.482 124.713 454.069 125.302 458.761 127.855C463.455 130.406 465.216 138.454 463.455 142.183C461.695 145.912 455.436 151.016 457.979 155.138C460.521 159.26 463.65 164.56 460.131 169.073C456.612 173.586 452.895 182.223 450.156 183.401C447.417 184.579 439.008 183.597 439.008 183.597L412.408 144.539H412.411Z" fill="#201D40"/>
<path d="M431.566 131.142L439.152 130.001L438.547 137.067C438.547 137.067 434.705 144.016 431.06 142.819C427.415 141.623 429.192 138.554 429.192 138.554L431.565 131.142H431.566Z" fill="#F37A50"/>
<path d="M442.379 120.386C441.457 128.95 438.012 133.674 431.41 133.867C425.954 134.025 419.686 126.622 419.97 118.187C420.254 109.751 425.838 103.095 432.439 103.319C439.041 103.543 443.281 111.995 442.379 120.387V120.386Z" fill="#F37A50"/>
<path d="M435.122 118.837C435.028 118.82 434.941 118.773 434.873 118.697C433.895 117.58 432.205 117.807 432.188 117.811C431.953 117.845 431.733 117.681 431.699 117.445C431.665 117.208 431.936 116.734 432.387 116.716C432.476 116.712 434.275 116.469 435.569 117.944C435.727 118.125 435.664 118.579 435.484 118.737C435.381 118.828 435.248 118.86 435.122 118.838V118.837Z" fill="#201D40"/>
<path d="M421.606 119.031C421.561 119.019 421.517 118.999 421.477 118.972C421.278 118.838 421.225 118.568 421.357 118.369C422.39 116.822 424.091 117.028 424.163 117.038C424.399 117.07 424.567 117.288 424.535 117.526C424.505 117.762 424.288 117.929 424.052 117.9C423.997 117.893 422.803 117.767 422.077 118.854C421.971 119.012 421.779 119.078 421.606 119.031Z" fill="#201D40"/>
<path d="M427.894 121.899C427.429 122.626 427.04 123.359 426.551 123.829C426.386 123.988 426.376 124.253 426.526 124.427C427.143 125.142 428.604 125.535 429.486 125.716C429.616 125.743 429.681 125.565 429.567 125.501C428.6 124.948 428.14 124.489 427.933 124.227C427.83 124.098 427.797 123.927 427.84 123.767C427.941 123.399 428.138 122.652 428.249 122.042C428.288 121.832 428.009 121.724 427.893 121.902L427.894 121.899Z" fill="#DE623C"/>
<path d="M433.185 128.132C433.379 127.865 433.163 127.496 432.837 127.538C432.007 127.644 430.635 127.793 429.325 127.804C428.014 127.816 426.64 127.691 425.808 127.6C425.48 127.565 425.271 127.936 425.47 128.201C426.08 129.011 427.336 130.239 429.345 130.221C431.354 130.204 432.59 128.953 433.185 128.133V128.132Z" fill="white"/>
<path d="M446.826 119.478C439.107 120.006 426.817 113.55 425.154 109.785C425.645 104.751 430.183 100.488 435.001 101.787C439.82 103.086 448.798 112.867 446.826 119.478Z" fill="#201D40"/>
<path d="M428.348 112.256C428.348 112.256 424.083 115.697 419.577 117.289C420.581 111.668 421.27 107.414 423.894 105.762C426.519 104.11 429.559 103.528 429.559 103.528L428.348 112.256Z" fill="#201D40"/>
<path d="M439.742 117.98C438.456 119.486 438.409 121.565 439.638 122.623C440.867 123.679 442.907 123.315 444.193 121.808C445.479 120.301 445.526 118.223 444.297 117.165C443.068 116.108 441.029 116.473 439.742 117.98Z" fill="#F37A50"/>
<path d="M441.44 121.872C441.377 121.855 441.318 121.823 441.266 121.778C440.519 121.113 440.285 120.244 440.638 119.451C441.002 118.639 441.876 118.123 442.718 118.223C442.955 118.251 443.125 118.467 443.097 118.705C443.068 118.943 442.853 119.113 442.616 119.085C442.153 119.029 441.632 119.346 441.427 119.807C441.23 120.249 441.377 120.718 441.839 121.128C442.017 121.287 442.034 121.562 441.876 121.74C441.763 121.867 441.593 121.913 441.44 121.872Z" fill="#DE623C"/>
<path d="M425.196 120.068C425.27 120.718 424.804 121.305 424.157 121.379C423.509 121.454 422.924 120.986 422.85 120.337C422.776 119.687 423.242 119.1 423.889 119.026C424.537 118.951 425.122 119.419 425.196 120.068Z" fill="black"/>
<path d="M434.123 120.394C434.202 121.087 433.705 121.713 433.015 121.793C432.324 121.872 431.701 121.374 431.622 120.681C431.543 119.987 432.039 119.361 432.73 119.282C433.421 119.203 434.044 119.701 434.123 120.394Z" fill="black"/>
<path d="M424.463 291.161C424.971 286.076 422.356 247.378 422.356 247.378C414.963 213.358 417.867 189.006 417.867 189.006L430.574 189.902L435.583 209.127L433.207 241.232C433.207 241.232 434.098 243.704 434.569 245.679C437.12 256.397 434.579 269.203 433.009 277.741C432.281 281.697 431.148 290.01 431.119 291.9L432.114 295.107L416.65 302.69C421.398 297.797 424.318 292.617 424.463 291.161Z" fill="#F37A50"/>
<path d="M427.471 294.951C426.435 291.92 424.152 291.557 424.152 291.557C419.636 297.878 408.765 293.844 409.028 302.467C425.628 302.547 432.525 302.736 432.525 302.736C432.525 300.756 432.251 296.054 431.889 294.21L431.021 294.365L427.471 294.951Z" fill="#181630"/>
<path d="M428.76 191.481L446.661 189.006C453.509 204.554 455.742 231.625 457.599 241.269C465.061 253.825 467.43 291.9 467.43 291.9L468.397 295.74L458.823 301.72C455.748 299.339 460.528 294.282 460.836 292.852C461.298 290.702 446.346 248.462 446.346 248.462L444.751 244.454C426.489 214.185 423.493 191.303 423.493 191.303L428.758 191.483L428.76 191.481Z" fill="#F37A50"/>
<path d="M463.98 296.481C462.944 293.451 460.661 293.088 460.661 293.088C456.145 299.408 445.274 295.374 445.538 303.998C462.137 304.077 469.034 304.266 469.034 304.266C469.034 302.287 468.76 297.584 468.398 295.74L467.531 295.895L463.98 296.481Z" fill="#181630"/>
<path d="M384.482 119.272C384.482 119.272 382.711 122.959 381.933 126.345C381.956 126.421 383.646 129.193 384.218 130.158C385.66 128.528 387.474 127.16 389.035 125.64C388.342 120.036 385.001 119.279 384.483 119.272H384.482Z" fill="#DE623C"/>
<path d="M427.625 143.003C427.276 137.329 422.627 137.494 422.627 137.494C419.321 137.288 405.654 143.558 397.212 148.809C397.049 148.91 396.888 149.012 396.728 149.113C395.386 142.266 389.715 131.498 389.048 125.749C389.043 125.712 389.038 125.678 389.033 125.641C387.473 127.162 385.658 128.53 384.216 130.16C384.327 130.349 384.398 130.47 384.403 130.487C385.87 135.846 386.375 156.528 391.219 159.906C394.615 162.275 421.692 150.159 421.692 150.159C421.692 150.159 427.94 148.07 427.625 143.005V143.003Z" fill="#F37A50"/>
<path d="M388.609 126.522C389.702 125.194 390.443 121.329 387.523 119.083C384.172 116.508 385.085 119.399 385.837 120.183C387.859 122.297 385.243 123.391 386.116 124.791C386.988 126.191 387.91 127.374 388.611 126.522H388.609Z" fill="#F37A50"/>
<path d="M393.06 59.5989C397.414 72.0086 393.34 84.7558 383.959 88.0713C374.577 91.3867 363.442 84.0151 359.086 71.6071C354.731 59.1973 358.805 46.4501 368.186 43.1346C377.568 39.8192 388.705 47.1908 393.06 59.5989Z" fill="#5E7CDB"/>
<path d="M416.902 72.4203C412.556 84.8334 401.426 92.2118 392.041 88.9031C382.657 85.5944 378.574 72.8489 382.92 60.4357C387.266 48.0243 398.396 40.6443 407.781 43.953C417.164 47.2617 421.248 60.0072 416.902 72.4203Z" fill="#264591"/>
<path d="M384.401 112.245C384.122 112.245 383.861 112.078 383.749 111.809L366.224 69.8253C366.073 69.4642 366.243 69.0475 366.604 68.8956C366.966 68.7438 367.379 68.9142 367.531 69.277L382.948 106.216L376.104 56.9246C376.05 56.5365 376.321 56.1771 376.707 56.1231C377.094 56.0691 377.452 56.3408 377.506 56.7288L385.102 111.438C385.151 111.792 384.931 112.126 384.588 112.221C384.525 112.238 384.461 112.246 384.401 112.246V112.245Z" fill="#201D40"/>
<path d="M384.401 112.245C384.327 112.245 384.251 112.233 384.177 112.207C383.853 112.098 383.651 111.77 383.701 111.43L390.864 62.6747C390.918 62.3086 391.234 62.0201 391.602 62.0386C392.026 62.0606 392.328 62.4402 392.268 62.8519L385.679 107.697L404.995 77.6609C405.291 77.1159 406.194 77.1159 406.401 78.0422L385.023 111.873C384.895 112.106 384.655 112.243 384.401 112.243V112.245Z" fill="#201D40"/>
<path d="M420.217 45.6723C414.044 59.2513 401.217 66.6769 391.568 62.258C381.919 57.8391 379.103 43.2511 385.277 29.672C391.451 16.093 404.277 8.66911 413.926 13.0863C423.575 17.5053 426.391 32.0933 420.217 45.6723Z" fill="#5E7CDB"/>
<path d="M397.611 19.1436C397.399 19.1436 397.202 19.0103 397.132 18.7977C397.012 18.4383 397.288 18.2072 397.51 18.0199C398.396 17.2775 400.691 15.7978 403.675 14.9676C407.594 13.876 411.453 14.2792 414.831 16.1335C415.074 16.2685 415.165 16.5756 415.031 16.8202C414.898 17.0649 414.59 17.156 414.346 17.021C410.157 14.7213 406.059 15.2595 403.361 16.1166C400.331 17.0784 398.324 18.6256 398.041 18.8972C397.981 18.9968 397.887 19.0761 397.769 19.1166C397.717 19.1335 397.663 19.1436 397.609 19.1436H397.611ZM398.09 18.4788C398.1 18.5125 398.108 18.5446 398.112 18.5784C398.108 18.5463 398.102 18.5125 398.09 18.4788Z" fill="white"/>
<path d="M375.846 58.3216C386.452 58.3216 395.05 46.2222 395.05 31.2969C395.05 16.3715 386.452 4.27213 375.846 4.27213C365.241 4.27213 356.643 16.3715 356.643 31.2969C356.643 46.2222 365.241 58.3216 375.846 58.3216Z" fill="#E56B10"/>
<path d="M391.38 25.5349C391.047 25.5349 390.76 25.2886 390.714 24.9477C389.862 18.467 387.273 13.5183 383.229 10.6364C380.172 8.45989 377.323 8.20174 377.294 8.20005C376.924 8.16968 376.648 7.84404 376.679 7.47285C376.709 7.10165 377.032 6.82494 377.4 6.85363C377.529 6.86375 380.591 7.12696 383.942 9.48912C387.007 11.6488 390.901 16.0542 392.047 24.7706C392.096 25.1401 391.837 25.4792 391.469 25.5282C391.439 25.5315 391.41 25.5332 391.38 25.5332V25.5349Z" fill="white"/>
<path d="M374.757 7.43404C374.757 7.9689 374.325 8.40084 373.794 8.40084C373.262 8.40084 372.83 7.96721 372.83 7.43404C372.83 6.90087 373.262 6.46724 373.794 6.46724C374.325 6.46724 374.757 6.90087 374.757 7.43404Z" fill="white"/>
<path d="M384.401 244.64C384.009 244.64 383.693 244.323 383.693 243.93V111.534C383.693 111.143 384.009 110.824 384.401 110.824C384.793 110.824 385.109 111.141 385.109 111.534V243.93C385.109 244.323 384.793 244.64 384.401 244.64Z" fill="#201D40"/>
<path d="M351.328 28.4876C358.662 6.03868 378.182 16.0947 379.947 28.9921C382.891 42.9777 368.304 69.3799 367.205 67.8512C306.343 52.8701 330.477 14.3012 351.328 28.4859V28.4876Z" fill="#F57191"/>
<path d="M366.914 65.4385L366.821 71.656C366.815 72.1166 367.248 72.476 367.623 72.3191L371.275 70.7904C371.65 70.6335 371.702 70.0717 371.371 69.7528L366.914 65.4385Z" fill="#F57191"/>
<path d="M375.349 44.6127C375.277 44.6127 375.204 44.6009 375.132 44.5773C374.781 44.4575 374.592 44.0744 374.712 43.7201C374.759 43.5801 379.389 29.6619 373.72 23.3364C371.125 20.6891 368.42 19.395 365.675 19.4912C361.471 19.6396 358.561 23.0091 358.533 23.0428C358.292 23.3263 357.867 23.36 357.584 23.1188C357.302 22.8775 357.268 22.4506 357.509 22.1671C357.641 22.0102 360.839 18.3101 365.628 18.1414C368.768 18.03 371.816 19.4642 374.688 22.4L374.708 22.4202C380.921 29.3295 376.189 43.5514 375.984 44.1537C375.889 44.4338 375.628 44.611 375.347 44.611L375.349 44.6127Z" fill="white"/>
<path d="M356.964 25.4067C356.964 26.0833 356.417 26.6316 355.743 26.6316C355.069 26.6316 354.523 26.0833 354.523 25.4067C354.523 24.7301 355.069 24.1817 355.743 24.1817C356.417 24.1817 356.964 24.7301 356.964 25.4067Z" fill="white"/>
<path d="M426.42 42.3113C448.746 34.8199 452.354 56.5399 443.095 65.6595C433.669 76.3752 403.853 80.3841 404.418 78.5872C380.08 20.6385 425.32 17.0548 426.42 42.3113Z" fill="#E62552"/>
<path d="M406.175 76.9118L401.148 80.5478C400.775 80.8178 400.748 81.3813 401.096 81.5905L404.497 83.6186C404.845 83.8261 405.326 83.5326 405.385 83.077L406.175 76.9135V76.9118Z" fill="#E62552"/>
<path d="M402.357 57.0072C402.429 57.0072 402.502 56.9954 402.574 56.9718C402.925 56.852 403.114 56.469 402.994 56.1147C402.947 55.9746 398.317 42.0565 403.986 35.731C406.581 33.0837 409.286 31.7895 412.031 31.8857C416.234 32.0342 419.145 35.4036 419.173 35.4374C419.414 35.7209 419.839 35.7546 420.122 35.5133C420.404 35.272 420.438 34.8452 420.197 34.5617C420.064 34.4048 416.867 30.7046 412.078 30.5359C408.938 30.4246 405.89 31.8587 403.018 34.7945L402.998 34.8148C396.784 41.7241 401.516 55.946 401.722 56.5483C401.817 56.8284 402.078 57.0056 402.359 57.0056L402.357 57.0072Z" fill="white"/>
<path d="M421.963 39.0245C422.637 39.0245 423.183 38.4761 423.183 37.7995C423.183 37.123 422.637 36.5746 421.963 36.5746C421.289 36.5746 420.742 37.123 420.742 37.7995C420.742 38.4761 421.289 39.0245 421.963 39.0245Z" fill="white"/>
<path d="M380.867 126.331C380.963 126.237 381.074 126.168 381.19 126.11C381.173 126.094 381.156 126.08 381.141 126.063C380.199 125.096 379.998 123.765 380.689 123.089C380.801 122.977 380.934 122.893 381.077 122.83C380.715 122.051 380.751 121.234 381.245 120.75C381.44 120.558 381.689 120.441 381.963 120.392C381.551 119.636 381.596 118.752 382.148 118.212C382.839 117.536 384.049 117.656 384.853 118.479C385.657 119.304 385.748 120.521 385.057 121.199C384.882 121.371 384.673 121.491 384.446 121.562C385.168 122.49 385.277 123.637 384.651 124.249C384.537 124.361 384.406 124.445 384.263 124.508C384.624 125.287 384.589 126.104 384.095 126.588C383.913 126.767 383.686 126.88 383.436 126.935C383.831 127.59 383.809 128.38 383.323 128.856C382.74 129.428 381.716 129.326 381.038 128.629C380.359 127.933 380.283 126.905 380.867 126.333V126.331Z" fill="#F37A50"/>
<path d="M467.978 234.849C466.191 228.846 461.031 190.535 445.249 178.852L418.091 181.724C411.814 191.918 410.458 211.706 409.654 236.06C434.994 226.237 433.385 247.228 467.978 234.849Z" fill="#E62552"/>
<path d="M417.759 174.999C417.759 169.031 412.605 160.088 415.076 154.063C416.877 149.216 420.411 138.282 424.264 137.543C425.828 137.243 427.545 137.545 429.708 136.944C429.708 136.944 428.579 142.006 431.122 142.21C436.02 142.605 438.594 136.303 438.594 136.303C441.235 136.05 450.444 138.809 450.439 139.806C450.41 147.625 446.984 160.267 444.914 168.72C444.531 173.025 444.833 176.364 445.264 178.798C446.049 181.338 447.006 182.79 447.012 183.34C447.012 183.34 428.858 189.529 417.307 183.148C417.307 183.148 417.761 179.028 417.761 174.997L417.759 174.999Z" fill="#E62552"/>
<path d="M478.861 138.157L465.602 154.693C465.602 154.693 461.285 158.128 466.213 165.103C470.47 164.315 477.783 156.94 483.131 141.979C481.892 139.408 478.861 138.157 478.861 138.157Z" fill="#F37A50"/>
<path d="M442.291 149.481C442.291 149.481 448.051 158.818 466.213 165.103C472.449 159.457 467.312 154.212 467.312 154.212L450.439 139.808C450.439 139.808 447.348 137.376 443.846 140.501C440.07 143.87 442.289 149.481 442.289 149.481H442.291Z" fill="#F37A50"/>
<path d="M486.62 138.765C485.827 139.387 484.89 139.902 483.976 140.314L483.041 142.426L478.405 138.922L478.775 136.835C477.198 131.813 479.29 131.938 478.377 126.733C481.082 125.935 480.305 130.357 481.391 131.457C481.681 131.751 482.101 131.808 482.755 131.469C483.871 130.89 485.078 128.947 487.227 131.753C489.714 134.903 488.626 137.187 486.62 138.765Z" fill="#F37A50"/>
<path d="M485.541 139.416C484.569 138.738 483.328 136.84 482.666 136.219C483.291 134.462 482.291 132.142 481.354 131.515L481.391 131.457C481.681 131.751 482.101 131.808 482.755 131.469C483.871 130.89 485.078 128.947 487.227 131.753C489.714 134.903 487.832 138.171 485.541 139.416Z" fill="#DE623C"/>
<path d="M488.002 132.895C487.316 131.201 486.116 130.394 485.556 130.124C484.887 129.819 482.852 130.553 482.516 131.334C482.178 132.115 482.42 132.957 483.039 133.271C483.207 133.347 483.365 133.372 483.567 133.34C483.288 134.164 483.528 135.006 484.09 135.277C484.199 135.311 484.307 135.345 484.416 135.379C484.364 136.01 484.614 136.59 485.058 136.777C485.226 136.853 485.435 136.87 485.586 136.846C485.467 137.385 485.638 138.179 486.082 138.367C486.513 138.964 487.35 138.675 487.832 138.176C488.819 137.153 489.166 135.768 488.002 132.898V132.895Z" fill="#F37A50"/>
<path d="M397.737 148.691V291.64C397.737 297.949 392.639 303.065 386.351 303.065H137.661C131.373 303.065 126.275 297.949 126.275 291.64V148.691C126.275 142.381 131.373 137.267 137.661 137.267H386.353C392.641 137.267 397.739 142.381 397.739 148.691H397.737Z" fill="#3F964F"/>
<path d="M397.737 148.691V291.64C397.737 297.949 392.639 303.065 386.351 303.065H173.39C187.975 255.616 222.704 219.787 277.21 213.927C320.725 209.248 361.564 174.206 364.091 137.268H386.351C392.639 137.268 397.737 142.382 397.737 148.693V148.691Z" fill="#0E6A41"/>
<path d="M397.737 254.446H126.205V273.777H397.737V254.446Z" fill="#C4204A"/>
<path d="M331.222 136.666H310.859V302.899H331.222V136.666Z" fill="#C4204A"/>
<path d="M153.85 158.335H164.57V169.561C162.347 171.791 158.295 173.122 155.177 173.122C146.574 173.122 141.733 167.941 141.733 160.098C141.733 152.867 146.574 147.075 154.46 147.075C158.19 147.075 160.626 148.082 162.67 149.702L160.268 154.343C159.264 153.263 157.077 152.472 155.141 152.472C151.019 152.472 147.828 154.919 147.828 160.1C147.828 164.742 150.767 167.727 155.249 167.727C156.755 167.727 158.618 167.008 159.193 166.468V163.733H153.852V158.337L153.85 158.335Z" fill="white"/>
<path d="M169.945 147.506H175.682V172.69H169.945V147.506Z" fill="white"/>
<path d="M182.493 147.506H197.012V152.902H188.229V158.227H195.936V163.623H188.229V172.689H182.493V147.505V147.506Z" fill="white"/>
<path d="M198.805 147.506H219.597V152.902H212.068V172.689H206.332V152.902H198.803V147.506H198.805Z" fill="white"/>
<path d="M163.064 205.131C161.557 206.822 158.295 208.045 154.889 208.045C147.11 208.045 141.733 202.865 141.733 195.021C141.733 187.79 146.214 181.997 154.854 181.997C158.188 181.997 161.021 183.148 162.526 184.624L159.98 188.942C158.618 188.115 157.219 187.395 154.854 187.395C150.982 187.395 147.828 190.057 147.828 195.021C147.828 199.482 150.911 202.648 155.427 202.648C157.219 202.648 159.192 202.072 160.876 200.812L163.064 205.13V205.131Z" fill="white"/>
<path d="M174.212 182.429H179.339L189.771 207.613H183.641L181.561 202.325H171.632L169.552 207.613H163.78L174.212 182.429ZM173.782 196.928H179.411L176.615 189.804L173.784 196.928H173.782Z" fill="white"/>
<path d="M192.997 207.613V182.429C194.396 182.429 200.812 182.357 201.53 182.357C208.378 182.357 210.816 185.775 210.816 190.415C210.816 195.055 207.947 196.999 206.586 197.682L213.899 207.612H206.944L200.849 198.797H198.734V207.612H192.997V207.613ZM198.734 187.825V193.401H200.814C203.001 193.401 204.721 192.61 204.721 190.488C204.721 189.084 204.005 187.753 201.244 187.753C200.383 187.753 199.918 187.788 198.734 187.825Z" fill="white"/>
<path d="M217.124 182.429H217.625C218.952 182.429 223.397 182.321 225.046 182.321C235.084 182.321 239.135 188.114 239.135 194.805C239.135 201.856 234.332 207.686 224.76 207.686C223.434 207.686 220.135 207.613 217.734 207.613H217.126V182.429H217.124ZM222.861 187.825V202.216C223.614 202.288 224.115 202.288 224.94 202.288C229.888 202.288 233.042 199.59 233.042 194.805C233.042 190.02 229.636 187.719 224.976 187.719C224.367 187.719 223.577 187.719 222.861 187.827V187.825Z" fill="white"/>
<path d="M360.073 192.413C362.452 194.8 362.452 198.671 360.073 201.058C357.694 203.446 353.837 203.446 351.458 201.058C349.079 198.671 349.079 194.8 351.458 192.413C353.837 190.025 357.694 190.025 360.073 192.413Z" fill="#3F964F"/>
<path d="M224.528 293.322C224.588 290.68 222.502 288.489 219.87 288.429C217.237 288.37 215.054 290.463 214.995 293.105C214.935 295.747 217.021 297.937 219.653 297.997C222.286 298.057 224.469 295.964 224.528 293.322Z" fill="#3F964F"/>
<path d="M208.465 284.63C208.465 286.462 206.986 287.948 205.158 287.948C203.331 287.948 201.851 286.462 201.851 284.63C201.851 282.797 203.331 281.311 205.158 281.311C206.986 281.311 208.465 282.796 208.465 284.63Z" fill="#3F964F"/>
<path d="M247.461 239.423C247.831 237.138 246.285 234.986 244.008 234.615C241.731 234.244 239.586 235.795 239.216 238.08C238.847 240.365 240.393 242.518 242.67 242.889C244.946 243.26 247.092 241.708 247.461 239.423Z" fill="#3F964F"/>
<path d="M280.663 206.935C281.032 204.65 279.486 202.497 277.209 202.127C274.933 201.756 272.787 203.307 272.418 205.592C272.048 207.877 273.594 210.03 275.871 210.401C278.148 210.771 280.293 209.22 280.663 206.935Z" fill="#0E6A41"/>
<path d="M199.913 245.647C199.913 247.962 198.043 249.838 195.736 249.838C193.429 249.838 191.56 247.962 191.56 245.647C191.56 243.332 193.429 241.456 195.736 241.456C198.043 241.456 199.913 243.332 199.913 245.647Z" fill="#0E6A41"/>
<path d="M301.964 182.043C301.964 183.484 300.8 184.651 299.364 184.651C297.929 184.651 296.765 183.484 296.765 182.043C296.765 180.602 297.929 179.434 299.364 179.434C300.8 179.434 301.964 180.602 301.964 182.043Z" fill="#0E6A41"/>
<path d="M249.798 235.068C248.003 235.068 246.542 233.602 246.542 231.8C246.542 229.998 248.003 228.532 249.798 228.532C251.594 228.532 253.055 229.998 253.055 231.8C253.055 233.602 251.594 235.068 249.798 235.068ZM249.798 229.806C248.702 229.806 247.811 230.7 247.811 231.8C247.811 232.9 248.702 233.794 249.798 233.794C250.894 233.794 251.785 232.9 251.785 231.8C251.785 230.7 250.894 229.806 249.798 229.806Z" fill="#3F964F"/>
<path d="M276.443 273.777H257.705C254.817 265.695 256.256 256.663 256.68 254.446H275.809L276.443 273.777Z" fill="#AB1C41"/>
<path d="M386.486 273.777H372.914L377.091 254.446H386.901C387.195 260.072 388.286 267.131 386.486 273.777Z" fill="#AB1C41"/>
<path d="M387.521 164.573C384.772 164.573 382.538 162.329 382.538 159.572C382.538 156.815 384.774 154.569 387.521 154.569C390.269 154.569 392.506 156.813 392.506 159.572C392.506 162.331 390.27 164.573 387.521 164.573ZM387.521 156.518C385.843 156.518 384.48 157.888 384.48 159.57C384.48 161.253 385.845 162.623 387.521 162.623C389.198 162.623 390.565 161.253 390.565 159.57C390.565 157.888 389.199 156.518 387.521 156.518Z" fill="#3F964F"/>
<path d="M291.037 205.55C288.004 205.55 285.537 203.075 285.537 200.031C285.537 196.987 288.004 194.512 291.037 194.512C294.07 194.512 296.536 196.987 296.536 200.031C296.536 203.075 294.07 205.55 291.037 205.55ZM291.037 196.663C289.186 196.663 287.681 198.175 287.681 200.031C287.681 201.887 289.188 203.398 291.037 203.398C292.886 203.398 294.393 201.887 294.393 200.031C294.393 198.175 292.886 196.663 291.037 196.663Z" fill="#0E6A41"/>
<path d="M367.919 182.347C367.919 184.459 366.213 186.172 364.108 186.172C362.003 186.172 360.296 184.459 360.296 182.347C360.296 180.234 362.003 178.522 364.108 178.522C366.213 178.522 367.919 180.234 367.919 182.347Z" fill="#3F964F"/>
<path d="M353.766 223.362C353.766 224.796 352.608 225.959 351.179 225.959C349.749 225.959 348.591 224.796 348.591 223.362C348.591 221.928 349.749 220.765 351.179 220.765C352.608 220.765 353.766 221.928 353.766 223.362Z" fill="#3F964F"/>
<path d="M331.222 269.704V281.053C331.222 281.053 331.211 281.053 331.206 281.053C324.86 281.901 313.765 281.405 310.859 281.255V271.044L331.222 269.702V269.704Z" fill="#AB1C41"/>
<path d="M331.222 248.527V257.758L310.859 255.693V248.195C313.131 247.827 322.099 246.606 331.222 248.527Z" fill="#AB1C41"/>
<path d="M372.835 283.732C372.237 286.238 362.453 286.03 350.985 283.268C339.517 280.506 330.705 276.236 331.306 273.732C331.904 271.226 341.688 271.434 353.156 274.196C364.624 276.958 373.435 281.226 372.835 283.732Z" fill="#E62552"/>
<path d="M372.835 283.732C372.835 283.732 387.646 253.051 369.52 237.213C359.903 241.038 330.433 254.487 330.433 254.487L331.304 273.73L372.834 283.732H372.835Z" fill="#E62552"/>
<path d="M369.52 237.213C370.554 239.57 362.643 245.349 351.849 250.119C341.055 254.888 331.467 256.844 330.433 254.487C329.399 252.13 337.31 246.351 348.103 241.581C358.897 236.811 368.486 234.856 369.52 237.213Z" fill="#C4204A"/>
<path d="M269.009 283.732C269.607 286.238 279.391 286.03 290.859 283.268C302.327 280.506 311.139 276.236 310.538 273.732C309.94 271.226 300.156 271.434 288.688 274.196C277.22 276.958 268.408 281.226 269.009 283.732Z" fill="#E62552"/>
<path d="M269.009 283.732C269.009 283.732 254.198 253.051 272.324 237.213C281.941 241.038 311.411 254.487 311.411 254.487L310.54 273.73L269.01 283.732H269.009Z" fill="#E62552"/>
<path d="M272.324 237.213C271.29 239.57 279.201 245.349 289.995 250.119C300.788 254.888 310.377 256.844 311.411 254.487C312.445 252.13 304.534 246.351 293.74 241.581C282.947 236.811 273.358 234.856 272.324 237.213Z" fill="#C4204A"/>
<path d="M328.377 253.264H313.309C311.243 253.264 309.568 254.944 309.568 257.018V272.977C309.568 275.051 311.243 276.732 313.309 276.732H328.377C330.443 276.732 332.118 275.051 332.118 272.977V257.018C332.118 254.944 330.443 253.264 328.377 253.264Z" fill="#E62552"/>
<path d="M333.925 265.92C333.925 265.92 349.613 267.538 358.997 264.006C356.505 267.391 345.948 269.009 342.575 268.42C347.853 270.921 364.128 274.747 371.605 271.656C361.781 275.63 341.109 273.863 333.925 265.918V265.92Z" fill="#C4204A"/>
<path d="M333.814 263.021C337.194 257.871 354.091 250.712 369.11 257.62C362.226 256.741 342.95 258.123 333.814 263.021Z" fill="#C4204A"/>
<path d="M308.664 265.92C308.664 265.92 292.976 267.538 283.592 264.006C286.084 267.391 296.641 269.009 300.013 268.42C294.736 270.921 278.461 274.747 270.984 271.656C280.808 275.63 301.479 273.863 308.664 265.918V265.92Z" fill="#C4204A"/>
<path d="M308.775 263.021C305.395 257.871 288.498 250.712 273.479 257.62C280.362 256.741 299.638 258.123 308.775 263.021Z" fill="#C4204A"/>
<path d="M272.085 237.71C281.553 247.961 296.518 251.531 309.419 255.545C296.572 254.63 278.876 249.621 272.085 237.71Z" fill="#F05478"/>
<path d="M331.57 255.587C345.434 253.309 358.914 247.517 369.765 238.482C360.799 249.729 345.8 256.171 331.57 255.587Z" fill="#F05478"/>
<path d="M311.295 253.704C308.608 254.463 307.757 263.352 310.271 269.328C312.786 275.304 312.257 257.907 314.506 256.048C316.756 254.188 320.461 255.914 321.519 258.04C322.578 260.164 323.504 256.181 325.488 255.649C327.474 255.118 329.194 263.352 328.664 268.398C328.135 273.445 332.963 262.117 332.434 257.47C331.904 252.821 329.115 253.053 322.84 252.994C316.872 252.938 314.032 252.929 311.292 253.704H311.295Z" fill="#F05478"/>
<path d="M343.023 119.569L341.151 137.545C337.244 137.631 333.256 137.678 329.206 137.678C321.149 137.678 313.351 137.499 305.942 137.169L305.222 119.547L319.402 118.013H328.21L343.024 119.569H343.023Z" fill="#5172DB"/>
<path d="M288.919 163.249C287.898 159.685 289.135 159.01 288.283 157.279L292.661 152.124C294.855 158.504 298.056 158.511 299.023 161.857C299.568 163.74 299.549 166.232 299.312 166.417C299.075 166.603 297.85 166.844 297.138 164.08C296.246 160.611 293.322 163.795 296.95 170.586C297.858 172.287 297.439 175.773 295.973 174.73C294.358 173.581 291.227 171.297 288.922 163.249H288.919Z" fill="#F37A50"/>
<path d="M286.166 157.38C290.393 156.894 293.712 154.488 293.712 154.488C293.712 154.488 293.218 146.504 289.596 138.081C297.813 138.741 306.461 138.414 308.79 136.285L305.22 119.547C305.22 119.547 275.999 125.422 274.041 133.902C272.775 139.384 284.441 152.923 286.166 157.38Z" fill="#5172DB"/>
<path d="M358.452 163.249C359.472 159.685 358.235 159.01 359.087 157.279L354.709 152.124C352.515 158.504 349.314 158.511 348.347 161.857C347.802 163.74 347.821 166.232 348.058 166.417C348.295 166.603 349.521 166.844 350.232 164.08C351.125 160.611 354.048 163.795 350.42 170.586C349.512 172.287 349.931 175.773 351.397 174.73C353.013 173.581 356.143 171.297 358.448 163.249H358.452Z" fill="#F37A50"/>
<path d="M361.204 157.38C356.977 156.894 353.658 154.488 353.658 154.488C353.658 154.488 354.153 146.504 357.774 138.081C350.071 139.097 339.428 138.858 337.101 136.73L343.023 119.569C343.023 119.569 371.371 125.42 373.331 133.902C374.597 139.384 362.931 152.923 361.206 157.38H361.204Z" fill="#5172DB"/>
<path d="M318.508 119.959C321.453 122.201 324.569 123.161 327.809 120.89L328.251 109.722L318.54 109.606L318.508 119.957V119.959Z" fill="#F37A50"/>
<path d="M315.137 109.142C309.681 109.791 306.828 102.799 306.828 102.799C303.485 102.244 304.048 98.9051 304.048 98.9051C302.463 98.4175 300.35 96.7083 301.031 93.673C301.607 91.1016 304.119 91.2231 304.442 88.213C304.701 85.7969 302.974 79.8746 310.659 79.4173C310.659 79.4173 310.849 74.9259 315.464 73.8545C321.124 72.5401 322.523 75.9534 325.002 76.5659C327.773 77.2509 333.73 74.6947 334.507 81.1316C334.507 81.1316 338.463 81.2244 340.28 84.1147C341.973 86.8058 340.98 90.2461 339.842 91.5116C339.842 91.5116 343.012 92.5965 343.74 95.6116C344.228 97.6329 343.443 100.247 341.435 101.514C340.159 102.32 338.947 102.394 338.947 102.394C337.651 102.605 337.568 106.088 336.429 106.759C334.596 107.839 332.607 108.6 330.583 109.202L315.135 109.143L315.137 109.142Z" fill="#2C2858"/>
<path d="M336.112 95.7719C336.741 105.215 331.576 113.252 324.577 113.721C317.578 114.19 311.392 106.916 310.764 97.4727C310.135 88.0291 315.732 81.9297 322.733 81.4606C329.732 80.9916 335.485 86.3283 336.114 95.7719H336.112Z" fill="#F37A50"/>
<path d="M318.348 100.628C317.605 100.678 316.961 100.113 316.91 99.3657C316.86 98.6183 317.423 97.9738 318.168 97.9231C318.911 97.8725 319.555 98.4378 319.605 99.1852C319.656 99.9327 319.093 100.577 318.348 100.628Z" fill="black"/>
<path d="M329.085 99.9074C328.34 99.958 327.698 99.3928 327.647 98.6453C327.597 97.8978 328.16 97.2533 328.905 97.2027C329.648 97.1521 330.292 97.7173 330.342 98.4648C330.393 99.2122 329.829 99.8567 329.085 99.9074Z" fill="black"/>
<path d="M331.285 97.1791C331.065 97.1943 330.842 97.0947 330.707 96.899C330.337 96.3591 329.912 96.0486 329.443 95.9761C328.632 95.8529 327.877 96.4401 327.869 96.4468C327.588 96.6678 327.181 96.6223 326.959 96.3422C326.738 96.0621 326.781 95.6555 327.059 95.4311C327.107 95.3923 328.247 94.4862 329.623 94.6887C330.467 94.8135 331.191 95.3096 331.776 96.1633C331.98 96.4603 331.904 96.8652 331.61 97.0677C331.511 97.1369 331.398 97.174 331.287 97.1808L331.285 97.1791Z" fill="#2C2858"/>
<path d="M315.626 98.296C315.485 98.3062 315.338 98.269 315.212 98.1813C314.918 97.9755 314.846 97.5705 315.051 97.2752C315.831 96.1532 316.732 95.5104 317.734 95.3653C319.025 95.1763 319.97 95.9204 320.011 95.9524C320.29 96.1768 320.337 96.5868 320.113 96.8669C319.891 97.147 319.486 97.1926 319.207 96.9732C319.187 96.958 318.627 96.543 317.906 96.656C317.28 96.7539 316.678 97.2128 316.117 98.021C315.999 98.1897 315.818 98.2859 315.628 98.2977L315.626 98.296Z" fill="#2C2858"/>
<path d="M325.044 100.604C326.87 101.748 327.449 102.229 328.148 102.604C327.788 104.196 325.399 105.134 324.695 105.001C326.337 104.046 326.502 102.892 326.502 102.892L325.044 100.604Z" fill="#DE623C"/>
<path d="M313.025 99.0249C314.333 100.984 314.22 103.359 312.774 104.331C311.328 105.303 309.096 104.505 307.788 102.546C306.48 100.587 306.592 98.2117 308.038 97.2398C309.484 96.268 311.717 97.066 313.025 99.0249Z" fill="#F37A50"/>
<path d="M311.735 102.739C311.68 102.742 311.623 102.735 311.566 102.715C311.34 102.637 311.221 102.389 311.298 102.163C311.557 101.411 311.525 100.822 311.202 100.412C310.705 99.7791 309.619 99.6458 308.842 99.7251C308.605 99.7504 308.393 99.575 308.368 99.3371C308.344 99.0992 308.517 98.8866 308.754 98.863C309.797 98.7583 311.165 98.9693 311.88 99.8753C312.236 100.327 312.566 101.139 312.115 102.448C312.057 102.619 311.904 102.728 311.735 102.74V102.739Z" fill="#DE623C"/>
<path d="M319.752 107.19C319.537 106.884 319.785 106.469 320.155 106.521C321.093 106.655 322.647 106.844 324.133 106.877C325.619 106.911 327.18 106.791 328.123 106.7C328.494 106.665 328.725 107.09 328.496 107.385C327.793 108.295 326.349 109.666 324.073 109.616C321.795 109.565 320.414 108.129 319.752 107.19Z" fill="white"/>
<path d="M306.317 90.7473L321.294 78.1452L338.251 86.406L336.415 98.5997C335.879 92.993 332.486 94.8726 330.684 93.2663C328.856 91.6381 328.024 89.0549 323.846 91.434C323.846 91.434 320.372 89.1342 318.679 92.5054C317.369 95.1122 315.513 94.6549 313.676 94.8254C311.508 95.0278 312.067 97.1335 310.738 97.0913L306.318 90.7456L306.317 90.7473Z" fill="#2C2858"/>
<path d="M323.185 122.108C323.185 122.108 326.822 118.648 327.995 116.329C330.231 117.104 333.365 118.572 333.365 118.572C333.365 118.572 333.242 125.808 328.464 130.71C328.106 129.91 323.185 122.107 323.185 122.107V122.108Z" fill="#3E5EC7"/>
<path d="M323.185 122.108C323.185 122.108 319.669 118.769 318.496 116.451C316.26 117.225 313.126 118.67 313.126 118.67C313.126 118.67 313.284 126.117 318.064 131.019C318.422 130.219 323.185 122.108 323.185 122.108Z" fill="#3E5EC7"/>
<path d="M324.286 127.094C324.286 127.648 323.839 128.098 323.286 128.098C322.733 128.098 322.285 127.649 322.285 127.094C322.285 126.539 322.733 126.09 323.286 126.09C323.839 126.09 324.286 126.539 324.286 127.094Z" fill="#3E5EC7"/>
<path d="M324.286 134.15C324.286 134.704 323.839 135.154 323.286 135.154C322.733 135.154 322.285 134.705 322.285 134.15C322.285 133.595 322.733 133.146 323.286 133.146C323.839 133.146 324.286 133.595 324.286 134.15Z" fill="#3E5EC7"/>
<path d="M30.423 245.22L26.3241 241.026L20.7018 242.661C20.1537 242.819 19.6846 242.242 19.9469 241.736L22.6555 236.528L19.3685 231.667C19.0491 231.194 19.4492 230.567 20.0125 230.661L25.7844 231.636L29.3756 226.996C29.7253 226.544 30.4432 226.733 30.5273 227.3L31.3864 233.111L36.8927 235.105C37.429 235.299 37.471 236.043 36.9616 236.298L31.721 238.913L31.5327 244.785C31.5142 245.357 30.8215 245.627 30.423 245.219V245.22Z" fill="white"/>
<path d="M172.163 39.5492L168.982 36.2945L164.619 37.5633C164.193 37.6865 163.829 37.2394 164.034 36.8463L166.135 32.8036L163.585 29.0309C163.336 28.6631 163.649 28.1771 164.084 28.2514L168.565 29.009L171.352 25.4084C171.623 25.0574 172.181 25.2042 172.247 25.6429L172.914 30.1529L177.188 31.7001C177.603 31.8503 177.637 32.429 177.242 32.6264L173.175 34.6562L173.029 39.2135C173.015 39.6572 172.477 39.8681 172.168 39.5509L172.163 39.5492Z" fill="#CFDAFF"/>
<path d="M458.667 99.2561L455.486 96.0014L451.121 97.2702C450.696 97.3934 450.331 96.9462 450.536 96.5531L452.638 92.5104L450.087 88.7377C449.839 88.3699 450.151 87.884 450.587 87.9582L455.067 88.7158L457.855 85.1152C458.126 84.7643 458.684 84.9111 458.749 85.3497L459.417 89.8598L463.691 91.407C464.106 91.5571 464.14 92.1359 463.745 92.3333L459.677 94.3631L459.531 98.9203C459.518 99.3641 458.98 99.575 458.67 99.2578L458.667 99.2561Z" fill="#CFDAFF"/>
<path d="M359.775 114.754L356.734 111.641L352.561 112.854C352.154 112.972 351.806 112.543 352.001 112.167L354.012 108.301L351.572 104.694C351.335 104.343 351.632 103.877 352.049 103.948L356.333 104.672L358.998 101.228C359.257 100.893 359.79 101.034 359.852 101.453L360.49 105.766L364.577 107.245C364.975 107.389 365.005 107.942 364.627 108.131L360.737 110.073L360.597 114.431C360.584 114.855 360.069 115.056 359.773 114.754H359.775Z" fill="white"/>
<path d="M28.1213 159.935C31.6184 153.461 37.0456 157.638 36.8691 161.693C36.9935 166.147 31.0535 173.426 30.8013 172.896C12.9712 164.894 22.5159 154.417 28.1213 159.935Z" fill="#CDD8FA"/>
<path d="M264.609 11.8681C270.347 7.69388 273.338 13.6043 271.499 17.0632C269.755 20.9945 261.552 24.8482 261.554 24.2813C249.349 9.84344 262.02 4.71419 264.609 11.8681Z" fill="white"/>
<path d="M502.729 241.39C507.794 237.705 510.434 242.924 508.81 245.976C507.272 249.447 500.03 252.848 500.032 252.347C489.258 239.604 500.444 235.075 502.729 241.39Z" fill="white"/>
<path d="M509.593 140.346C514.659 136.661 517.299 141.879 515.675 144.932C514.136 148.402 506.895 151.804 506.897 151.303C496.123 138.559 507.308 134.032 509.593 140.346Z" fill="#CFDAFF"/>
</g>
<defs>
<clipPath id="clip0_156_12">
<rect width="523" height="324" fill="white"/>
</clipPath>
</defs>
</svg>
