<svg width="42" height="41" viewBox="0 0 42 41" fill="none" xmlns="http://www.w3.org/2000/svg">
<g clip-path="url(#clip0_125_75)">
<path d="M39.2498 24.0783H38.6396V18.5818C38.6396 17.7117 38.2065 16.9412 37.5451 16.4731V15.7247C37.5451 14.6391 36.6619 13.7559 35.5763 13.7559H35.1207L36.864 11.1978C37.4483 10.3404 37.2261 9.16735 36.3687 8.58293L24.5394 0.521571C24.1241 0.238444 23.6234 0.133954 23.1293 0.227692C22.6355 0.321272 22.2076 0.601532 21.9245 1.01694L11.7143 15.9994H8.8731L9.55858 9.06023C9.5663 8.98202 9.61711 8.91424 9.68799 8.88756C10.5711 8.55458 11.3365 7.93274 11.843 7.13663C11.8829 7.07396 11.9582 7.03812 12.0361 7.046L16.4924 7.48626C16.812 7.51724 17.0962 7.28453 17.1278 6.96517C17.1593 6.6458 16.926 6.3614 16.6067 6.32986L12.1503 5.8896C11.633 5.83895 11.1397 6.07732 10.8626 6.5128C10.4901 7.09817 9.9274 7.55531 9.27808 7.80013C8.78932 7.98442 8.4537 8.42341 8.4021 8.94594L7.70539 15.9994H6.96448L8.04856 5.02437C8.08759 4.62935 8.44016 4.33913 8.83567 4.37871L17.8411 5.26831C18.1605 5.29914 18.4449 5.06658 18.4764 4.74722C18.5079 4.42785 18.2747 4.14345 17.9553 4.11191L8.94987 3.22231C7.91739 3.12045 6.9941 3.87745 6.89208 4.91008L6.01825 13.7559H4.53014C3.44462 13.7559 2.56139 14.6391 2.56139 15.7247V16.2352C1.6733 16.6441 1.05496 17.5418 1.05496 18.5818V38.3884C1.05496 39.8124 2.21343 40.9709 3.63751 40.9709H36.0571C37.4811 40.9709 38.6396 39.8124 38.6396 38.3884V32.892H39.2498C39.9701 32.892 40.556 32.3061 40.556 31.5859V25.3845C40.5561 24.6642 39.9701 24.0783 39.2498 24.0783ZM35.5763 14.9181C36.0212 14.918 36.383 15.2799 36.383 15.7247V16.0208C36.2762 16.0072 36.1676 15.9995 36.0571 15.9995H33.5918L34.3288 14.9181H35.5763ZM22.8848 1.67128C22.9931 1.5124 23.1567 1.4052 23.3456 1.36936C23.3908 1.36084 23.4361 1.35654 23.4811 1.35654C23.6242 1.35654 23.7641 1.39939 23.885 1.48174L35.7143 9.5431C36.0422 9.76665 36.1273 10.2154 35.9038 10.5433L32.1857 15.9993H31.2934L33.1163 13.3243C33.4119 12.8905 33.4363 12.3385 33.1797 11.8835C32.8387 11.279 32.7004 10.5672 32.7904 9.87919C32.8573 9.36733 32.6321 8.86765 32.2026 8.57505L26.0704 4.39607C25.6408 4.10339 25.0934 4.07655 24.6415 4.32607C24.0342 4.66136 23.3212 4.79301 22.6339 4.6968C22.1242 4.62528 21.6072 4.85545 21.316 5.28273L14.0129 15.9994H13.1206L22.8848 1.67128ZM23.1406 11.5382C20.6103 11.5382 18.5333 13.5112 18.364 15.9994H15.419L22.2761 5.93715H22.2761C22.3151 5.87988 22.3797 5.8458 22.446 5.8458C22.4548 5.8458 22.4637 5.84644 22.4725 5.84763C23.4074 5.9784 24.377 5.79953 25.2031 5.34342C25.268 5.30742 25.3515 5.31259 25.4159 5.3564L31.5482 9.53545C31.6124 9.57926 31.6477 9.65507 31.6381 9.72866C31.5157 10.6644 31.7038 11.6323 32.1676 12.4544C32.2048 12.5204 32.2002 12.605 32.1561 12.6699L29.8873 15.9993H27.9175C27.7481 13.5112 25.6711 11.5382 23.1406 11.5382ZM26.7522 15.9994H19.5291C19.6956 14.1526 21.2513 12.7003 23.1406 12.7003C25.0301 12.7003 26.5859 14.1526 26.7522 15.9994ZM3.72345 15.7247C3.72345 15.2798 4.08526 14.9179 4.53014 14.9179H5.90349L5.79669 15.9994H3.72345V15.7247ZM2.21702 18.5818C2.21702 17.7986 2.85423 17.1614 3.63751 17.1614H36.0571C36.8404 17.1614 37.4776 17.7986 37.4776 18.5818V20.1941H2.21702V18.5818ZM37.4776 38.3884C37.4776 39.1716 36.8404 39.8088 36.0571 39.8088H3.63751C2.85423 39.8088 2.21702 39.1716 2.21702 38.3884V36.7761H5.35029C5.67125 36.7761 5.93128 36.516 5.93128 36.1951C5.93128 35.8743 5.67117 35.6141 5.35029 35.6141H2.21702V21.3562H37.4776V24.0783H31.9531H31.953C30.2124 24.0783 28.7046 25.093 27.989 26.5616C27.9866 26.5666 27.9839 26.5714 27.9814 26.5763C27.9754 26.5888 27.9701 26.6018 27.9642 26.6144C27.879 26.7954 27.805 26.9828 27.7447 27.1762C27.7445 27.1767 27.7443 27.1772 27.7442 27.1777C27.6156 27.591 27.5462 28.0301 27.5462 28.4851C27.5462 30.9151 29.5231 32.892 31.953 32.892H31.953H37.4775V35.6141H9.07069C8.74973 35.6141 8.4897 35.8743 8.4897 36.1951C8.4897 36.516 8.74981 36.7761 9.07069 36.7761H37.4776V38.3884ZM39.3941 31.5858C39.3941 31.6653 39.3294 31.7299 39.2498 31.7299H31.9532C30.7231 31.7299 29.6507 31.0419 29.1006 30.0305C29.0756 29.9846 29.0517 29.9379 29.0288 29.8907C28.9832 29.7961 28.942 29.6991 28.9056 29.5997C28.778 29.2519 28.7084 28.8765 28.7084 28.4851C28.7084 28.0938 28.7781 27.7184 28.9056 27.3706C28.9421 27.2713 28.9833 27.1742 29.0288 27.0796C29.0517 27.0324 29.0756 26.9857 29.1006 26.9398C29.6507 25.9284 30.7231 25.2404 31.9532 25.2404H39.2498C39.3293 25.2404 39.3941 25.305 39.3941 25.3845V31.5858Z" fill="#3B4A5D"/>
<path d="M32.0893 26.1277C30.7894 26.1277 29.7319 27.1853 29.7319 28.4851C29.7319 29.785 30.7894 30.8425 32.0893 30.8425C33.3892 30.8425 34.4467 29.785 34.4467 28.4851C34.4467 27.1853 33.3892 26.1277 32.0893 26.1277ZM32.0893 29.6804C31.4302 29.6804 30.894 29.1442 30.894 28.4851C30.894 27.8261 31.4302 27.2898 32.0893 27.2898C32.7484 27.2898 33.2847 27.826 33.2847 28.4851C33.2847 29.1443 32.7484 29.6804 32.0893 29.6804Z" fill="#3B4A5D"/>
</g>
<defs>
<clipPath id="clip0_125_75">
<rect width="40.7767" height="40.7767" fill="white" transform="translate(0.417191 0.194168)"/>
</clipPath>
</defs>
</svg>
