<svg width="40" height="40" viewBox="0 0 40 40" fill="none" xmlns="http://www.w3.org/2000/svg">
<path d="M20.9961 20.7371C21.3355 20.7371 21.6142 21.016 21.6142 21.3558C21.6142 21.6955 21.3358 21.9739 20.9961 21.9739H2.84021C2.21323 21.9739 1.6735 21.7127 1.29043 21.3036C0.907365 20.8938 0.680965 20.3196 0.680965 19.7009V2.65126C0.680965 2.03319 0.933476 1.45844 1.35156 1.04926C1.76934 0.631173 2.33519 0.378662 2.95356 0.378662H31.9416C32.5686 0.378662 33.1347 0.631173 33.5525 1.04926C33.5611 1.05786 33.57 1.07537 33.5872 1.08397C33.9789 1.49315 34.2142 2.05039 34.2142 2.65126V19.7009C34.2142 20.3279 33.9267 20.8938 33.4914 21.3036C33.0475 21.7127 32.4466 21.9739 31.8282 21.9739H31.3229C30.9835 21.9739 30.7045 21.6955 30.7045 21.3558C30.7045 21.016 30.9832 20.7371 31.3229 20.7371H31.8282C32.133 20.7371 32.4377 20.6155 32.6552 20.4066C32.8555 20.2146 32.986 19.971 32.986 19.7009V2.65126C32.986 2.37264 32.8816 2.12873 32.7077 1.93735C32.6991 1.92875 32.6899 1.91984 32.6813 1.91124C32.4899 1.72846 32.2285 1.6065 31.9413 1.6065H2.95356C2.66603 1.6065 2.40492 1.72846 2.21354 1.91124C2.03045 2.10262 1.9085 2.36403 1.9085 2.65126V19.7009C1.9085 20.0057 2.01294 20.2757 2.18712 20.4671C2.34379 20.6327 2.57049 20.7371 2.84021 20.7371H20.9961Z" fill="#3B4A5D"/>
<path d="M33.0909 11.2022C32.8992 10.9147 32.9776 10.5405 33.2648 10.3488C33.5434 10.1661 33.9265 10.2444 34.1096 10.523L38.002 16.3572C38.2284 16.6966 38.3936 17.0364 38.5242 17.4019C38.6462 17.7589 38.7245 18.1423 38.7595 18.5425L39.3168 24.882C39.3254 24.969 39.3081 25.047 39.2906 25.1167L37.1397 34.6697C37.07 34.9481 36.8174 35.1486 36.5388 35.1486H25.1319C24.9753 35.1486 24.8272 35.0875 24.7141 34.9831C23.1555 33.6858 22.2585 32.1182 21.9973 30.1851C21.7448 28.3306 22.0932 26.1538 23.0074 23.5497L23.251 16.7055C23.3035 15.0771 24.148 14.041 25.2192 13.5882C25.6369 13.414 26.0983 13.3357 26.5601 13.3529C27.0215 13.3704 27.4743 13.4834 27.8923 13.6923C28.9546 14.2323 29.7554 15.3819 29.6946 17.1408L29.573 24.9951C29.573 25.3345 29.2944 25.6045 28.9546 25.6045C28.6152 25.5962 28.3451 25.317 28.3537 24.9865L28.4668 17.1319C28.4407 16.1741 28.2754 15.2685 27.3348 14.7896C27.0734 14.659 26.7947 14.5893 26.5161 14.5721C26.2378 14.5635 25.9503 14.6157 25.6892 14.7202C25.0275 14.9988 24.5049 15.6694 24.4788 16.7489L24.2349 23.6545C24.2349 23.7242 24.2263 23.8026 24.2002 23.8723C23.3296 26.328 22.9902 28.3481 23.2163 30.0287C23.4255 31.5702 24.1308 32.8413 25.3586 33.9208H36.0519L38.0806 24.9002L37.5406 18.6476C37.5145 18.334 37.4536 18.0553 37.3667 17.8028C37.2798 17.5414 37.1489 17.2889 36.9836 17.0364L33.0909 11.2022Z" fill="#3B4A5D"/>
<path d="M33.6045 7.61484C33.944 7.61484 34.214 7.88486 34.214 8.22431C34.214 8.56375 33.944 8.84268 33.6045 8.84268H15.2487C14.9092 8.84268 14.6392 8.56406 14.6392 8.22431C14.6392 7.88455 14.9092 7.61484 15.2487 7.61484H33.6045ZM3.78925 7.58873C4.12869 7.58873 4.40762 7.86735 4.40762 8.2071C4.40762 8.54686 4.129 8.81657 3.78925 8.81657H1.29885C0.959409 8.81657 0.68048 8.54686 0.68048 8.2071C0.68048 7.86735 0.959102 7.58873 1.29885 7.58873H3.78925Z" fill="#3B4A5D"/>
<path d="M10.1373 21.3558C10.1373 21.6952 9.85872 21.9739 9.51896 21.9739C9.17952 21.9739 8.9095 21.6955 8.9095 21.3558V11.6464C8.9095 11.307 9.17921 11.028 9.51896 11.028C9.85872 11.028 10.1373 11.3067 10.1373 11.6464V21.3558ZM10.1373 3.04323C10.1373 3.38268 9.85872 3.66161 9.51896 3.66161C9.17952 3.66161 8.9095 3.38299 8.9095 3.04323V0.996729C8.9095 0.657284 9.17921 0.378662 9.51896 0.378662C9.85872 0.378662 10.1373 0.657284 10.1373 0.996729V3.04323Z" fill="#3B4A5D"/>
<path d="M13.1328 11.6378C13.2197 11.96 13.0283 12.2995 12.6975 12.3867C12.3752 12.474 12.0358 12.2823 11.9485 11.96C11.7568 11.2633 11.5394 10.6102 11.1563 10.0705C10.8079 9.5916 10.3029 9.17382 9.51897 8.85158C8.73532 9.17382 8.2389 9.5916 7.89055 10.0705C7.49888 10.6102 7.28108 11.2633 7.0983 11.96C7.00246 12.2823 6.67162 12.4737 6.34077 12.3867C6.01853 12.2998 5.82715 11.96 5.91409 11.6378C6.13188 10.828 6.393 10.053 6.89802 9.35629C7.06359 9.12099 7.26388 8.89489 7.49028 8.6857C6.08826 8.11954 5.2524 7.20535 4.89544 6.35197C4.73877 5.9775 4.67795 5.60304 4.68655 5.26359C4.70406 4.88022 4.81711 4.54077 5.0174 4.26215C5.37435 3.75713 5.99273 3.48742 6.80248 3.62658C7.51639 3.74853 8.30003 4.17522 8.95312 5.09833C9.15341 5.37695 9.34479 5.71639 9.51897 6.10837C9.69314 5.71639 9.88483 5.37695 10.0937 5.09833C10.7468 4.17522 11.5218 3.74853 12.2358 3.62658C13.0544 3.48742 13.6639 3.75713 14.0294 4.26215C14.2297 4.54077 14.3431 4.88053 14.3603 5.26359C14.3689 5.60304 14.2995 5.9775 14.1514 6.35197C13.7944 7.20535 12.9586 8.11954 11.5566 8.6857C11.783 8.89459 11.9746 9.12099 12.1488 9.35629C12.6452 10.053 12.9064 10.828 13.1328 11.6378ZM8.81366 7.82372C8.58726 6.93563 8.29113 6.27394 7.95168 5.80363C7.51639 5.18526 7.02857 4.90664 6.60188 4.83721C6.30575 4.78499 6.10546 4.84581 6.00962 4.97668C5.9488 5.06361 5.91378 5.17697 5.91378 5.30752C5.90518 5.4817 5.93989 5.67308 6.02713 5.88228C6.34077 6.6309 7.21995 7.44925 8.81366 7.82372ZM11.0863 5.80363C10.7554 6.27394 10.4507 6.93563 10.2329 7.82372C11.8266 7.44925 12.7058 6.6309 13.0105 5.88197C13.0974 5.67308 13.141 5.48139 13.1324 5.30721C13.1238 5.17666 13.0974 5.06331 13.0366 4.97637C12.9408 4.84581 12.7405 4.78468 12.4357 4.83691C12.0094 4.90664 11.5304 5.18526 11.0863 5.80363Z" fill="#3B4A5D"/>
<path d="M2.87505 27.3549H5.58293C5.25209 26.9979 5.02569 26.6152 4.89513 26.2318C4.66874 25.5615 4.72096 24.804 5.18267 24.2464C5.58324 23.7675 6.21022 23.515 7.01137 23.6542C7.68197 23.7675 8.42199 24.1678 9.03146 25.039C9.20563 25.2915 9.37121 25.579 9.51897 25.9013C9.67563 25.579 9.83261 25.2918 10.0065 25.039C10.6249 24.1678 11.3563 23.7675 12.0269 23.6542C12.8366 23.515 13.4636 23.7675 13.8556 24.2464C14.3259 24.8037 14.3692 25.5615 14.1517 26.2318C14.0212 26.6152 13.7948 26.9979 13.455 27.3549H16.1629C16.8857 27.3549 17.4866 27.9472 17.4866 28.67V30.8907C17.4866 31.4307 17.1557 31.9093 16.6679 32.1099V38.5099C16.6679 39.1633 16.1282 39.7027 15.4837 39.7027H10.7904H8.25641H3.56285C2.90976 39.7027 2.37863 39.1633 2.37863 38.5099V32.1099C1.89112 31.9096 1.55997 31.4218 1.55997 30.8907V28.67C1.56027 27.9472 2.15223 27.3549 2.87505 27.3549ZM10.294 27.3549H11.1299C12.2096 27.0154 12.7933 26.4057 12.9847 25.849C13.0716 25.5873 13.0977 25.2479 12.915 25.0218C12.7933 24.8826 12.5666 24.804 12.2358 24.8562C11.8527 24.9259 11.4085 25.1784 11.0168 25.7443C10.7382 26.136 10.4943 26.6585 10.294 27.3549ZM7.91697 27.3549H8.74423C8.55255 26.6582 8.30003 26.1357 8.03001 25.744C7.62944 25.1781 7.19415 24.9256 6.80217 24.8559C6.47993 24.8037 6.25353 24.8823 6.12298 25.0215C5.93989 25.2476 5.97491 25.5873 6.05324 25.8487C6.24493 26.406 6.82828 27.0154 7.91697 27.3549ZM12.1138 28.583V30.9776H16.0498H16.1629C16.2151 30.9776 16.2501 30.9429 16.2501 30.8907V28.67C16.2501 28.626 16.2154 28.583 16.1629 28.583H12.1138ZM6.92413 30.9776V28.583H2.87505C2.83143 28.583 2.78781 28.6178 2.78781 28.67V30.8907C2.78781 30.9429 2.83143 30.9776 2.87505 30.9776H2.9881H6.92413ZM8.15197 28.583V30.9776H10.8863V28.583H8.15197ZM10.3985 38.4752V32.2143H8.63948V38.4752H10.3985ZM7.41164 38.4752V32.2143H3.60647V38.4752H7.41164ZM11.6263 32.2143V38.4752H15.4404V32.2143H11.6263Z" fill="#3B4A5D"/>
<path d="M24.2613 33.9205H37.1486C37.8192 33.9205 38.3764 34.4694 38.3764 35.1486V38.4749C38.3764 38.8054 38.2373 39.1194 38.0109 39.3372C37.7931 39.5633 37.4798 39.7024 37.1486 39.7024H24.2613C23.5907 39.7024 23.0335 39.1452 23.0335 38.4749V35.1486C23.0335 34.4698 23.5907 33.9205 24.2613 33.9205ZM37.1486 35.149H24.2613V38.4752H37.1486V35.149Z" fill="#3B4A5D"/>
</svg>
